<svg width="515" height="492" viewBox="0 0 515 492" fill="none" xmlns="http://www.w3.org/2000/svg">
<path opacity="0.1" d="M364.674 178.228V117.075L317.328 84.0189H318.167V40.2646L260.504 0L202.84 40.2646V84.0189H203.679L156.334 117.075V178.228L97 219.653V452.979L184.28 452.993V443.692V434.39V331.568L212.84 351.511V452.993H245.298V170.453L212.84 193.125V328.702L186.029 309.978L184.28 308.76V213.061L151.822 235.733V308.925L166.984 319.508L151.822 327.09V434.398H115.951V229.248L175.126 187.93H175.285V187.815L260.496 128.318L345.708 187.815V187.93H345.867L405.042 229.248V434.39H369.171V327.09L354.009 319.508L369.171 308.925V235.733L336.713 213.061V308.76L334.963 309.978L308.153 328.702V193.125L275.695 170.453V453H308.153V351.518L336.713 331.576V434.398V452.993L424 452.979V219.653L364.666 178.22L364.674 178.228ZM221.799 49.8524L260.504 22.8302L299.209 49.8524V71.3713L260.504 44.3419L221.799 71.3713V49.8524ZM260.504 105.495L175.292 164.992V126.663L260.504 67.165L345.715 126.663V164.992L260.504 105.495Z" fill="#D6A279"/>
<path d="M183.627 417.963C183.123 417.963 183.083 417.753 183.497 417.341L196.585 403.439C197.601 402.332 198.316 401.419 198.739 400.715C199.348 399.705 199.649 398.711 199.649 397.733C199.649 395.486 198.446 394.363 196.04 394.363C193.455 394.363 191.935 395.915 191.455 399.01L184.196 396.893C185.66 390.637 189.683 387.517 196.268 387.517C199.56 387.517 202.242 388.374 204.331 390.087C206.478 391.841 207.551 394.169 207.551 397.07C207.551 398.857 207.087 400.586 206.177 402.259C205.421 403.641 204.226 405.193 202.592 406.907L198.373 411.384H207.347V417.98H183.627V417.963Z" fill="#D6A279"/>
<path d="M229.298 414.026C226.063 411.06 224.453 407.35 224.453 402.921C224.453 398.492 226.071 394.766 229.298 391.808C232.444 388.946 236.248 387.508 240.711 387.508C245.174 387.508 248.953 388.938 252.099 391.808C255.335 394.766 256.944 398.468 256.944 402.921C256.944 407.374 255.326 411.06 252.099 414.026C248.953 416.912 245.157 418.35 240.711 418.35C236.264 418.35 232.444 416.912 229.298 414.026ZM246.58 408.902C247.97 407.358 248.669 405.362 248.669 402.913C248.669 400.464 247.97 398.468 246.58 396.924C245.133 395.307 243.174 394.499 240.711 394.499C238.248 394.499 236.264 395.307 234.817 396.924C233.427 398.468 232.728 400.464 232.728 402.913C232.728 405.362 233.427 407.358 234.817 408.902C236.264 410.543 238.232 411.367 240.711 411.367C243.19 411.367 245.133 410.543 246.58 408.902Z" fill="#D6A279"/>
<path d="M278.18 394.638H273.855V387.849H286.268V417.956H278.18V394.63V394.638Z" fill="#D6A279"/>
<path d="M307.986 394.944C307.986 392.81 308.847 391.048 310.571 389.674C312.359 388.235 314.676 387.508 317.553 387.508C320.431 387.508 322.764 388.227 324.536 389.674C326.243 391.056 327.097 392.81 327.097 394.944C327.097 397.077 326.178 398.969 324.333 400.351C328.072 402.008 329.942 404.74 329.942 408.538C329.942 411.335 328.877 413.646 326.747 415.481C324.487 417.429 321.423 418.399 317.553 418.399C313.684 418.399 310.628 417.429 308.335 415.481C306.206 413.646 305.141 411.343 305.141 408.538C305.141 404.707 307.01 401.992 310.75 400.391C308.904 398.953 307.986 397.134 307.986 394.944ZM322.227 407.916C322.227 405.119 320.667 403.721 317.553 403.721C314.44 403.721 312.839 405.119 312.839 407.916C312.839 410.713 314.416 412.175 317.553 412.175C320.691 412.175 322.227 410.761 322.227 407.916ZM320.358 395.833C320.358 394.119 319.423 393.263 317.553 393.263C315.684 393.263 314.708 394.119 314.708 395.833C314.708 397.546 315.659 398.451 317.553 398.451C319.447 398.451 320.358 397.579 320.358 395.833Z" fill="#D6A279"/>
<path d="M366.654 439.543H146.078V445.694H366.654V439.543Z" fill="#D6A279"/>
<path d="M158.372 491.06H152.966L146.113 470.635H151.495L155.624 484.958H155.689L159.851 470.635H165.257L158.38 491.06H158.372Z" fill="#D6A279"/>
<path d="M180.322 491.06V470.635H185.565V491.06H180.322Z" fill="#D6A279"/>
<path d="M202.047 491.06V470.635H213.452V475.218H207.071V478.395H213.248V482.977H207.071V486.477H213.452V491.06H202.047Z" fill="#D6A279"/>
<path d="M237.162 475.218V491.06H231.919V475.218H227.871V470.635H241.186V475.218H237.162Z" fill="#D6A279"/>
<path d="M290.136 491.06L282.316 478.638L282.243 478.662L282.397 491.052H277.365V470.628H281.893L289.835 483.463L289.892 483.406L289.664 470.62H294.688V491.044H290.136V491.06Z" fill="#D6A279"/>
<path d="M324.447 491.06L323.439 488.11H316.318L315.229 491.06H309.596L317.83 470.635H321.96L330.129 491.06H324.439H324.447ZM319.952 476.996H319.871L317.757 483.971H322.065L319.952 476.996Z" fill="#D6A279"/>
<path d="M361.825 491.06L361.988 475.768L361.931 475.711L357.558 491.06H354.087L349.697 475.711L349.64 475.768L349.803 491.06H344.982V470.635H351.729L355.81 484.077H355.867L359.891 470.635H366.654V491.06H361.834H361.825Z" fill="#D6A279"/>
<path d="M15.2009 301.987H18.1924C20.696 301.987 22.5006 301.219 23.6143 299.667L42.2131 274.927C43.091 273.747 44.0583 272.939 45.0988 272.486C46.1475 272.034 47.4318 271.807 48.9519 271.807H62.1288L38.7177 301.793C37.1976 303.741 35.6287 305.139 34.003 305.98C35.1817 306.449 36.2465 307.063 37.1976 307.815C38.1405 308.574 39.0591 309.568 39.937 310.813L63.9659 344.929H50.4314C49.5535 344.929 48.7975 344.864 48.1715 344.727C47.5456 344.59 47.001 344.404 46.5295 344.169C46.058 343.935 45.6516 343.636 45.3102 343.288C44.9688 342.941 44.6518 342.529 44.3429 342.052L25.4433 315.751C24.8011 314.838 24.037 314.2 23.1591 313.812C22.2812 313.424 21.0456 313.23 19.4605 313.23H15.2009V344.929H0V271.807H15.2009V301.995V301.987Z" fill="#D6A279"/>
<path d="M133.194 344.921H121.382C120.066 344.921 118.993 344.614 118.163 343.992C117.334 343.369 116.725 342.569 116.318 341.599L111.351 327.641H82.0551L77.0884 341.599C76.7551 342.44 76.1617 343.199 75.3163 343.895C74.4709 344.582 73.406 344.929 72.1217 344.929H60.2129L88.9484 271.807H104.507L133.194 344.929V344.921ZM85.7537 317.158H107.653L99.6947 294.778C99.2232 293.606 98.7192 292.223 98.199 290.647C97.6787 289.071 97.1666 287.374 96.6545 285.555C96.183 287.406 95.6953 289.128 95.1832 290.72C94.6711 292.312 94.1833 293.703 93.7119 294.875L85.7537 317.15V317.158Z" fill="#D6A279"/>
<path d="M148.016 271.879C148.471 271.927 148.886 272.049 149.26 272.226C149.634 272.412 149.983 272.655 150.325 272.954C150.658 273.253 151.032 273.657 151.438 274.166L188.335 320.778C188.197 319.501 188.099 318.256 188.034 317.052C187.969 315.839 187.937 314.7 187.937 313.625V271.798H201.366V344.92H193.513C192.335 344.92 191.335 344.726 190.522 344.338C189.709 343.95 188.92 343.287 188.14 342.35L151.495 296.037C151.601 297.209 151.674 298.365 151.723 299.489C151.772 300.612 151.796 301.663 151.796 302.641V344.92H138.367V271.798H146.374C147.016 271.798 147.561 271.822 148.016 271.879Z" fill="#D6A279"/>
<path d="M264.189 343.839C259.946 345.1 255.467 345.73 250.736 345.73C244.688 345.73 239.217 344.801 234.315 342.934C229.414 341.067 225.227 338.472 221.748 335.15C218.269 331.828 215.578 327.876 213.692 323.31C211.798 318.743 210.855 313.748 210.855 308.341C210.855 302.934 211.758 297.842 213.571 293.275C215.375 288.709 217.952 284.781 221.301 281.483C224.642 278.193 228.698 275.623 233.437 273.772C238.185 271.929 243.501 271 249.378 271C252.418 271 255.255 271.242 257.897 271.727C260.531 272.212 262.961 272.883 265.197 273.74C267.424 274.597 269.464 275.615 271.326 276.787C273.179 277.967 274.87 279.26 276.39 280.667L271.984 287.424C271.31 288.498 270.432 289.153 269.351 289.388C268.27 289.622 267.091 289.355 265.806 288.579C264.587 287.844 263.4 287.181 262.23 286.591C261.059 286.001 259.824 285.492 258.507 285.055C257.19 284.619 255.751 284.279 254.198 284.045C252.646 283.811 250.858 283.698 248.825 283.698C245.411 283.698 242.322 284.288 239.55 285.46C236.778 286.631 234.421 288.296 232.478 290.446C230.535 292.596 229.04 295.183 227.991 298.206C226.942 301.228 226.422 304.607 226.422 308.333C226.422 312.366 226.991 315.971 228.146 319.147C229.292 322.324 230.917 324.999 233.015 327.181C235.112 329.371 237.616 331.028 240.542 332.168C243.468 333.308 246.712 333.881 250.297 333.881C252.727 333.881 254.898 333.639 256.808 333.154C258.718 332.669 260.588 332.006 262.409 331.166V318.864H254.093C253.117 318.864 252.345 318.606 251.784 318.08C251.231 317.563 250.947 316.892 250.947 316.092V307.678H276.187V337.866C272.44 340.59 268.44 342.578 264.197 343.839H264.189Z" fill="#D6A279"/>
<path d="M296.626 271.879C297.081 271.927 297.495 272.049 297.869 272.226C298.243 272.412 298.593 272.655 298.934 272.954C299.267 273.253 299.641 273.657 300.048 274.166L336.945 320.778C336.806 319.501 336.709 318.256 336.644 317.052C336.579 315.839 336.546 314.7 336.546 313.625V271.798H349.975V344.92H342.123C340.944 344.92 339.944 344.726 339.131 344.338C338.318 343.95 337.53 343.287 336.75 342.35L300.105 296.037C300.21 297.209 300.284 298.365 300.332 299.489C300.381 300.612 300.405 301.663 300.405 302.641V344.92H286.977V271.798H294.983C295.626 271.798 296.17 271.822 296.626 271.879Z" fill="#D6A279"/>
<path d="M428.125 344.921H416.314C414.997 344.921 413.924 344.614 413.095 343.992C412.266 343.369 411.656 342.569 411.25 341.599L406.283 327.641H376.987L372.02 341.599C371.687 342.44 371.093 343.199 370.248 343.895C369.403 344.582 368.338 344.929 367.053 344.929H355.145L383.88 271.807H399.439L428.125 344.929V344.921ZM380.685 317.158H402.584L394.626 294.778C394.155 293.606 393.651 292.223 393.131 290.647C392.61 289.071 392.098 287.374 391.586 285.555C391.115 287.406 390.627 289.128 390.115 290.72C389.603 292.312 389.115 293.703 388.644 294.875L380.685 317.15V317.158Z" fill="#D6A279"/>
<path d="M472.227 316.802C472.78 318.047 473.316 319.316 473.82 320.633C474.324 319.292 474.869 317.982 475.446 316.705C476.015 315.428 476.625 314.2 477.267 313.028L497.695 274.175C497.996 273.601 498.321 273.157 498.654 272.842C498.987 272.518 499.353 272.284 499.743 272.139C500.134 271.985 500.573 271.896 501.06 271.864C501.548 271.831 502.133 271.815 502.808 271.815H514.359V344.937H500.93V300.039C500.93 299.134 500.955 298.14 501.003 297.065C501.06 295.99 501.133 294.874 501.231 293.735L480.25 333.395C479.104 335.586 477.324 336.669 474.926 336.669H472.796C471.618 336.669 470.569 336.394 469.658 335.836C468.748 335.279 468.016 334.462 467.48 333.387L446.345 293.63C446.451 294.769 446.532 295.893 446.597 296.984C446.662 298.075 446.694 299.093 446.694 300.031V344.929H433.266V271.807H444.817C445.459 271.807 446.036 271.823 446.54 271.856C447.052 271.888 447.491 271.985 447.881 272.13C448.271 272.284 448.621 272.518 448.946 272.834C449.271 273.157 449.58 273.593 449.881 274.167L470.463 313.173C471.073 314.353 471.658 315.557 472.211 316.802H472.227Z" fill="#D6A279"/>
</svg>
