<svg width="20" height="20" viewBox="0 0 20 20" fill="none" xmlns="http://www.w3.org/2000/svg">
<mask id="mask0_1195_4970" style="mask-type:alpha" maskUnits="userSpaceOnUse" x="0" y="0" width="20" height="20">
<g clip-path="url(#clip0_1195_4970)">
<mask id="mask1_1195_4970" style="mask-type:luminance" maskUnits="userSpaceOnUse" x="0" y="0" width="20" height="20">
<path d="M20 0H0V20H20V0Z" fill="white"/>
</mask>
<g mask="url(#mask1_1195_4970)">
<path d="M6.93717 0H0.785316C0.340322 0 0 0.340322 0 0.785316V6.91096C0 7.35601 0.340322 7.69629 0.785316 7.69629C1.23031 7.69629 1.57064 7.35596 1.57064 6.91096V1.57069H6.93712C7.38217 1.57069 7.72244 1.23036 7.72244 0.785367C7.72244 0.340372 7.38223 0 6.93717 0Z" fill="#888888"/>
<path d="M6.91103 18.4031H1.57069V13.0629C1.57069 12.6178 1.23036 12.2775 0.785367 12.2775C0.340372 12.2775 0 12.6178 0 13.0629V19.1885C0 19.6335 0.340322 19.9738 0.785316 19.9738H6.91096C7.35601 19.9738 7.69629 19.6335 7.69629 19.1885C7.69634 18.7434 7.35601 18.4031 6.91103 18.4031Z" fill="#888888"/>
<path d="M19.1894 12.2775C18.7442 12.2775 18.404 12.6179 18.404 13.0629V18.4294H13.0636C12.6186 18.4294 12.2783 18.7696 12.2783 19.2146C12.2783 19.6596 12.6186 20 13.0636 20H19.1894C19.6344 20 19.9746 19.6596 19.9746 19.2146V13.0629C19.9746 12.6178 19.6344 12.2775 19.1894 12.2775Z" fill="#888888"/>
<path d="M19.2155 0H13.0636C12.6186 0 12.2783 0.340322 12.2783 0.785316C12.2783 1.23031 12.6186 1.57064 13.0636 1.57064H18.4301V6.93712C18.4301 7.38217 18.7705 7.72244 19.2155 7.72244C19.6605 7.72244 20.0007 7.38211 20.0007 6.93712V0.785316C20.0009 0.340322 19.6605 0 19.2155 0Z" fill="#888888"/>
</g>
</g>
</mask>
<g mask="url(#mask0_1195_4970)">
<rect width="20" height="20" fill="#D6A279"/>
</g>
<defs>
<clipPath id="clip0_1195_4970">
<rect width="20" height="20" fill="white"/>
</clipPath>
</defs>
</svg>
