<svg width="20" height="20" viewBox="0 0 20 20" fill="none" xmlns="http://www.w3.org/2000/svg">
<mask id="mask0_1195_4952" style="mask-type:alpha" maskUnits="userSpaceOnUse" x="0" y="0" width="20" height="20">
<g clip-path="url(#clip0_1195_4952)">
<path d="M18.1443 9.07861V4.62477C18.1443 3.64286 17.3456 2.84399 16.3636 2.84399H3.63641C2.65449 2.84399 1.85562 3.64286 1.85562 4.62477V9.07861C0.787031 9.37443 0 10.3549 0 11.5163V14.9004C0 15.2282 0.265859 15.4941 0.59375 15.4941H1.85562V16.5622C1.85562 16.8901 2.12149 17.156 2.44938 17.156C2.77727 17.156 3.04312 16.8901 3.04312 16.5622V15.4941H16.9569V16.5622C16.9569 16.8901 17.2228 17.156 17.5507 17.156C17.8786 17.156 18.1443 16.8901 18.1443 16.5622V15.4941H19.4062C19.7341 15.4941 20 15.2282 20 14.9004V11.5163C20 10.3549 19.2129 9.37443 18.1443 9.07861ZM3.04312 4.62477C3.04312 4.29767 3.3093 4.03149 3.63641 4.03149H16.3637C16.6908 4.03149 16.9569 4.29767 16.9569 4.62477V8.98673H15.5657V7.79489C15.5657 6.75853 14.7226 5.9154 13.6862 5.9154H11.2858C10.7887 5.9154 10.3365 6.10966 10 6.42587C9.66359 6.10969 9.21133 5.9154 8.7143 5.9154H6.31387C5.2775 5.9154 4.43438 6.75856 4.43438 7.79489V8.98673H3.04312V4.62477ZM14.3782 7.79489V8.98673H10.5938V7.79489C10.5938 7.41329 10.9042 7.1029 11.2858 7.1029H13.6862C14.0678 7.1029 14.3782 7.41333 14.3782 7.79489ZM9.40621 7.79489V8.98673H5.62176V7.79489C5.62176 7.41329 5.93222 7.1029 6.31375 7.1029H8.71418C9.09578 7.1029 9.40621 7.41333 9.40621 7.79489ZM18.8124 14.3067H1.1875V11.5163C1.1875 10.7763 1.78953 10.1742 2.52957 10.1742H17.4704C18.2104 10.1742 18.8124 10.7763 18.8124 11.5163V14.3067Z" fill="#888888"/>
</g>
</mask>
<g mask="url(#mask0_1195_4952)">
<rect width="20" height="20" fill="#D6A279"/>
</g>
<defs>
<clipPath id="clip0_1195_4952">
<rect width="20" height="15.5556" fill="white" transform="translate(0 2.22223)"/>
</clipPath>
</defs>
</svg>
