<svg width="33" height="34" viewBox="0 0 33 34" fill="none" xmlns="http://www.w3.org/2000/svg">
<path d="M29.9906 25.4173C29.9906 25.9067 29.8818 26.4097 29.6507 26.8991C29.4197 27.3884 29.1206 27.8506 28.7264 28.2856C28.0603 29.0197 27.3262 29.5498 26.497 29.8897C25.6814 30.2295 24.7978 30.4062 23.8462 30.4062C22.4597 30.4062 20.9779 30.08 19.4147 29.4139C17.8514 28.7478 16.2881 27.8506 14.7384 26.7223C13.1751 25.5805 11.6934 24.3162 10.2797 22.9161C8.8795 21.5023 7.61528 20.0206 6.487 18.4709C5.37231 16.9212 4.47512 15.3716 3.82262 13.8355C3.17012 12.2858 2.84387 10.8041 2.84387 9.39031C2.84387 8.46594 3.007 7.58234 3.33325 6.76672C3.6595 5.9375 4.17606 5.17625 4.89653 4.49656C5.76653 3.64016 6.71809 3.21875 7.72403 3.21875C8.10465 3.21875 8.48528 3.30031 8.82512 3.46344C9.17856 3.62656 9.49122 3.87125 9.7359 4.22469L12.8897 8.66984C13.1343 9.00969 13.3111 9.32234 13.4334 9.62141C13.5557 9.90687 13.6237 10.1923 13.6237 10.4506C13.6237 10.7769 13.5286 11.1031 13.3382 11.4158C13.1615 11.7284 12.9032 12.0547 12.577 12.3809L11.5439 13.4548C11.3943 13.6044 11.3264 13.7811 11.3264 13.9986C11.3264 14.1073 11.34 14.2025 11.3672 14.3112C11.4079 14.42 11.4487 14.5016 11.4759 14.5831C11.7206 15.0317 12.142 15.6162 12.7401 16.3231C13.3518 17.03 14.0043 17.7505 14.7112 18.4709C15.4453 19.1914 16.1522 19.8575 16.8726 20.4692C17.5795 21.0673 18.164 21.4752 18.6262 21.7198C18.6942 21.747 18.7757 21.7878 18.8709 21.8286C18.9797 21.8694 19.0884 21.883 19.2107 21.883C19.4418 21.883 19.6186 21.8014 19.7681 21.6519L20.8012 20.6323C21.1411 20.2925 21.4673 20.0342 21.78 19.8711C22.0926 19.6808 22.4053 19.5856 22.7451 19.5856C23.0034 19.5856 23.2753 19.64 23.5743 19.7623C23.8734 19.8847 24.1861 20.0614 24.5259 20.2925L29.0254 23.487C29.3789 23.7317 29.6236 24.0172 29.7731 24.357C29.909 24.6969 29.9906 25.0367 29.9906 25.4173Z" stroke="#926B4F" stroke-width="1.74777" stroke-miterlimit="10"/>
<path d="M25.2736 12.7346C25.2736 11.919 24.6347 10.6684 23.6831 9.64884C22.8131 8.71087 21.6576 7.97681 20.5157 7.97681" stroke="#926B4F" stroke-width="1.74777" stroke-linecap="round" stroke-linejoin="round"/>
<path d="M30.0314 12.7344C30.0314 7.47359 25.7765 3.21875 20.5157 3.21875" stroke="#926B4F" stroke-width="1.74777" stroke-linecap="round" stroke-linejoin="round"/>
</svg>
