<svg width="71" height="70" viewBox="0 0 71 70" fill="none" xmlns="http://www.w3.org/2000/svg">
<path d="M63.8621 24.277C63.4669 22.0352 62.0334 20.2513 59.929 19.3826L58.8561 18.9398C56.9555 18.1553 55.8605 16.2586 56.1313 14.2204L56.2842 13.0694C56.5841 10.8129 55.756 8.67959 54.0121 7.21615C52.268 5.75285 50.0229 5.30797 47.8533 5.99498L46.7466 6.34539C44.7863 6.96637 42.7282 6.21729 41.6254 4.48137L41.003 3.50205C39.7823 1.58061 37.7765 0.478516 35.5 0.478516C33.2236 0.478516 31.2178 1.58061 29.997 3.50205L29.3746 4.48164C28.2718 6.21729 26.2136 6.96637 24.2534 6.34553L23.1466 5.99512C20.9765 5.30824 18.7317 5.75326 16.9879 7.21629C15.244 8.67959 14.4159 10.8129 14.7159 13.0695L14.8688 14.2203C15.1397 16.2586 14.0447 18.1552 12.1438 18.9398L11.0707 19.3829C8.96656 20.2515 7.53307 22.0354 7.13754 24.2773C6.74242 26.5189 7.47934 28.6855 9.15961 30.2215L10.0166 31.0048C11.5344 32.3921 11.9146 34.549 10.9629 36.3718L10.4256 37.4006C9.37193 39.4187 9.42047 41.7067 10.5587 43.6781C11.697 45.6497 13.6542 46.8357 15.9286 46.9321L17.0881 46.9812C17.0929 46.9813 17.0975 46.9822 17.1023 46.9824L10.66 62.1599C10.5829 62.3415 10.5598 62.5415 10.5936 62.7359C10.6273 62.9303 10.7165 63.1109 10.8503 63.2559C10.9841 63.4009 11.1569 63.5042 11.348 63.5534C11.539 63.6027 11.7403 63.5958 11.9275 63.5335L20.6778 60.6227L24.6623 68.9391C24.7458 69.1134 24.8769 69.2607 25.0405 69.3637C25.2042 69.4668 25.3936 69.5215 25.5869 69.5215L25.6103 69.5212C25.8076 69.5167 25.9994 69.4555 26.1627 69.3447C26.326 69.234 26.4538 69.0784 26.531 68.8968L32.4677 54.9104L32.7752 54.6738C34.405 53.4201 36.595 53.4201 38.2248 54.6738L38.532 54.9101L44.469 68.8967C44.5461 69.0783 44.674 69.2339 44.8373 69.3446C45.0006 69.4554 45.1924 69.5166 45.3897 69.5211L45.413 69.5213C45.6064 69.5213 45.7958 69.4666 45.9594 69.3636C46.123 69.2605 46.2541 69.1133 46.3377 68.9389L50.3222 60.6226L59.0723 63.5333C59.2596 63.5957 59.4608 63.6027 59.6519 63.5535C59.843 63.5042 60.0158 63.4009 60.1496 63.2558C60.2834 63.1108 60.3726 62.9302 60.4063 62.7358C60.4401 62.5414 60.417 62.3414 60.3399 62.1597L53.8971 46.982C53.9021 46.9818 53.9068 46.9811 53.9116 46.9808L55.071 46.9317C57.3454 46.8353 59.3027 45.6493 60.4409 43.6778C61.5792 41.7063 61.6279 39.4183 60.5742 37.4005L60.0369 36.3714C59.0853 34.5486 59.4655 32.3918 60.9831 31.0045L61.8399 30.2213C63.5203 28.6855 64.2573 26.5189 63.8621 24.277ZM25.5306 66.0049L22.1367 58.9213C22.0289 58.696 21.8425 58.5179 21.6127 58.4203C21.3828 58.3227 21.1252 58.3124 20.8883 58.3913L13.4351 60.8707L19.0925 47.5429C20.1759 48.1452 20.9774 49.1883 21.2632 50.4838L21.5131 51.6175C22.0031 53.8407 23.511 55.5622 25.6499 56.3407C26.3986 56.6132 27.1619 56.7474 27.9158 56.7474C28.47 56.7474 29.0187 56.6736 29.5524 56.5299L25.5306 66.0049ZM57.5646 60.8707L50.1115 58.3915C49.8746 58.3127 49.6171 58.323 49.3872 58.4206C49.1574 58.5182 48.971 58.6962 48.8631 58.9214L45.4692 66.0051L41.4466 56.5283C42.7064 56.8678 44.0505 56.8136 45.3499 56.3408C47.489 55.5622 48.997 53.8407 49.487 51.6176L49.7369 50.4839C50.0224 49.1881 50.8238 48.1451 51.9072 47.5429L57.5646 60.8707ZM60.4565 28.7075L59.5997 29.4908C57.3855 31.5146 56.8308 34.6611 58.2191 37.3204L58.7564 38.3496C59.4892 39.7532 59.4568 41.2811 58.6651 42.6524C57.8733 44.0236 56.5662 44.8157 54.9843 44.8827L53.8249 44.9318C50.8277 45.0588 48.38 47.1126 47.7344 50.0425L47.4845 51.1762C47.1436 52.7223 46.1366 53.8721 44.6486 54.4137C43.1609 54.9551 41.6503 54.7217 40.3955 53.7563L39.4753 53.0484C37.0975 51.2189 33.9024 51.2192 31.5247 53.0484L30.6048 53.7563C29.3497 54.7217 27.8392 54.9553 26.3516 54.4137C24.8639 53.8721 23.8569 52.7224 23.516 51.1762L23.2661 50.0423C22.6201 47.1127 20.1726 45.0591 17.1756 44.9319L16.0161 44.8829C14.4342 44.8159 13.1271 44.0237 12.3353 42.6524C11.5437 41.2814 11.5113 39.7532 12.2441 38.3496L12.7814 37.3208C14.1699 34.6615 13.6151 31.5148 11.4008 29.4908L10.5439 28.7075C9.37521 27.6393 8.88303 26.1923 9.15783 24.6332C9.43291 23.0739 10.3904 21.8824 11.8539 21.2782L12.9269 20.8351C15.7 19.6905 17.2975 16.9235 16.9023 13.9498L16.7493 12.7991C16.5406 11.2297 17.0937 9.80479 18.3065 8.78705C19.1413 8.0865 20.1119 7.72748 21.128 7.72748C21.588 7.72748 22.0577 7.80117 22.5281 7.95006L23.6347 8.30033C26.4945 9.2065 29.4971 8.11344 31.1058 5.58113L31.7283 4.60154C32.5772 3.26539 33.9168 2.5293 35.5 2.5293C37.0833 2.5293 38.4229 3.26539 39.2719 4.60182L39.8943 5.58127C41.503 8.11344 44.5056 9.20596 47.3654 8.30061L48.4723 7.9502C49.9814 7.47223 51.4808 7.76945 52.6937 8.78719C53.9067 9.80506 54.4597 11.2298 54.2512 12.7992L54.0982 13.9502C53.7031 16.9239 55.3005 19.6909 58.0735 20.8354L59.1463 21.2782C60.61 21.8824 61.5675 23.0739 61.8423 24.633C62.1173 26.1924 61.6252 27.6393 60.4565 28.7075ZM35.5 11.3512C25.9809 11.3512 18.2366 19.0955 18.2366 28.6145C18.2366 38.1336 25.9809 45.8778 35.5 45.8778C45.019 45.8778 52.7633 38.1335 52.7633 28.6144C52.7633 19.0954 45.019 11.3512 35.5 11.3512ZM35.5 43.827C27.1117 43.827 20.2874 37.0027 20.2874 28.6144C20.2874 20.2262 27.1117 13.4019 35.5 13.4019C43.8882 13.4019 50.7125 20.2262 50.7125 28.6144C50.7125 37.0027 43.8882 43.827 35.5 43.827ZM44.8245 20.7216C44.1321 20.1292 43.2514 19.8423 42.3418 19.9125C41.4333 19.9832 40.6067 20.4035 40.0147 21.0952L33.4615 28.7403L30.9314 25.9226C29.6719 24.5234 27.5088 24.4094 26.1093 25.6688C25.4315 26.2788 25.0317 27.1165 24.9837 28.0272C24.9357 28.9376 25.2451 29.8122 25.8547 30.4899L30.9814 36.1993C31.3153 36.5709 31.7269 36.8644 32.187 37.059C32.6471 37.2536 33.1444 37.3445 33.6436 37.3252C34.1393 37.3077 34.6252 37.1824 35.0674 36.9578C35.5097 36.7333 35.8976 36.415 36.2042 36.0251L45.1987 25.5318C46.4218 24.1026 46.2539 21.9447 44.8245 20.7216ZM43.641 24.198L34.632 34.7082C34.6209 34.7211 34.6101 34.7344 34.5997 34.7479C34.477 34.9062 34.3209 35.0357 34.1426 35.1269C33.9642 35.2182 33.768 35.269 33.5677 35.2759C33.1587 35.2898 32.7798 35.1318 32.5067 34.8284L27.3808 29.12L27.38 29.119C27.2598 28.9862 27.1671 28.8309 27.1073 28.662C27.0476 28.4931 27.0219 28.3141 27.0319 28.1352C27.0408 27.9563 27.0852 27.7809 27.1623 27.6192C27.2395 27.4575 27.3479 27.3127 27.4814 27.1932C27.7316 26.9678 28.0565 26.8433 28.3932 26.8438C28.5842 26.8434 28.7732 26.8832 28.9478 26.9607C29.1224 27.0383 29.2786 27.1517 29.4064 27.2937L32.7167 30.9802C32.9138 31.1998 33.195 31.3217 33.4914 31.3205C33.6374 31.3188 33.7812 31.286 33.9135 31.2242C34.0457 31.1625 34.1632 31.0732 34.2582 30.9624L41.5726 22.4291C42.0604 21.859 42.9212 21.792 43.4913 22.28C43.7675 22.5163 43.9351 22.846 43.9633 23.2084C43.9914 23.5709 43.8767 23.9225 43.641 24.198Z" fill="#D6A279"/>
</svg>
