<svg width="21" height="20" viewBox="0 0 21 20" fill="none" xmlns="http://www.w3.org/2000/svg">
<mask id="mask0_1195_4985" style="mask-type:alpha" maskUnits="userSpaceOnUse" x="0" y="0" width="21" height="20">
<g clip-path="url(#clip0_1195_4985)">
<path d="M11.6718 12.2149C11.5279 12.2149 11.3839 12.16 11.2741 12.0501L7.96946 8.74541C7.74976 8.52575 7.74976 8.16958 7.96946 7.94993C8.18911 7.73023 8.54528 7.73023 8.76494 7.94993L12.0696 11.2546C12.2893 11.4743 12.2893 11.8304 12.0696 12.0501C11.9597 12.16 11.8158 12.2149 11.6718 12.2149Z" fill="#888888"/>
<path d="M6.08216 14.5C5.93566 14.5 5.79184 14.4428 5.68429 14.3352C5.52521 14.1761 5.4762 13.9375 5.55977 13.7286L7.80977 8.10359C7.86693 7.96068 7.98021 7.8474 8.12312 7.79024L13.7481 5.54024C13.9571 5.45667 14.1957 5.50568 14.3548 5.66476C14.5139 5.82388 14.5629 6.06249 14.4793 6.27142L12.2293 11.8964C12.1721 12.0393 12.0589 12.1526 11.916 12.2098L6.29095 14.4598C6.22324 14.4869 6.1524 14.5 6.08216 14.5ZM8.76479 8.74526L7.09177 12.9278L11.2743 11.2548L12.9473 7.07224L8.76479 8.74526Z" fill="#888888"/>
<path d="M10.0195 19C7.61555 19 5.35546 18.0639 3.65555 16.364C1.95564 14.6641 1.01953 12.404 1.01953 10C1.01953 7.59602 1.95567 5.33593 3.65555 3.63602C5.35542 1.93611 7.61555 1 10.0195 1C12.4235 1 14.6836 1.93614 16.3835 3.63602C18.0834 5.33589 19.0195 7.59602 19.0195 10C19.0195 12.404 18.0834 14.6641 16.3835 16.364C14.6836 18.0639 12.4235 19 10.0195 19ZM10.0195 2.125C5.67724 2.125 2.14453 5.65771 2.14453 10C2.14453 14.3423 5.67724 17.875 10.0195 17.875C14.3618 17.875 17.8945 14.3423 17.8945 10C17.8945 5.65771 14.3618 2.125 10.0195 2.125Z" fill="#888888"/>
</g>
</mask>
<g mask="url(#mask0_1195_4985)">
<rect x="0.0195312" width="20" height="20" fill="#D6A279"/>
</g>
<defs>
<clipPath id="clip0_1195_4985">
<rect width="18" height="18" fill="white" transform="translate(1.01953 1)"/>
</clipPath>
</defs>
</svg>
