<svg width="28" height="32" viewBox="0 0 28 32" fill="none" xmlns="http://www.w3.org/2000/svg">
<path d="M19.0824 17.4604L21.9955 18.0385C22.0978 19.6755 23.5078 20.9194 25.1447 20.817C26.7817 20.7147 28.0256 19.3047 27.9233 17.6678C27.8209 16.0308 26.411 14.7869 24.774 14.8892C24.2526 14.9218 23.7491 15.0914 23.3142 15.3808C22.8793 15.6702 22.5284 16.0692 22.297 16.5375L19.2825 15.9393C19.2498 14.7974 18.808 13.7053 18.0376 12.8619L22.1012 7.12159C23.9829 7.9377 26.1698 7.07383 26.9859 5.19222C27.8019 3.31062 26.9381 1.12357 25.0565 0.307549C23.1749 -0.508477 20.9878 0.355316 20.1718 2.23692C19.8852 2.89768 19.797 3.62751 19.9178 4.33753C20.0386 5.04755 20.3633 5.70712 20.8523 6.23591L16.8369 11.9083C14.9158 10.8301 12.5064 11.2073 11.0067 12.8209L5.74484 8.73458C6.43961 7.24507 5.79528 5.47446 4.30585 4.77969C2.81633 4.08492 1.04572 4.72924 0.350953 6.21868C-0.343817 7.7082 0.300506 9.47881 1.78994 10.1736C2.26469 10.395 2.78947 10.4872 3.31126 10.4408C3.83305 10.3945 4.33336 10.2112 4.76163 9.90955L10.1522 14.0958C9.28628 15.9871 9.74482 18.2215 11.2858 19.6187L8.05673 24.1853C6.15048 23.1226 3.74358 23.8063 2.68084 25.7126C1.61809 27.6188 2.30184 30.0257 4.20809 31.0885C6.11435 32.1512 8.52124 31.4675 9.58399 29.5612C9.965 28.8778 10.1346 28.0967 10.0712 27.3168C10.0078 26.5369 9.71432 25.7934 9.22795 25.1805L12.5693 20.4547C13.1457 20.7104 13.7671 20.8492 14.3975 20.863C15.0279 20.8769 15.6548 20.7655 16.2419 20.5354L20.2363 26.4361C19.0147 27.8273 19.1524 29.9453 20.5435 31.1667C21.9348 32.3882 24.0528 32.2506 25.2742 30.8594C26.4957 29.4682 26.3581 27.3502 24.9669 26.1288C24.498 25.717 23.9234 25.4444 23.3078 25.3415C22.6923 25.2386 22.0603 25.3096 21.4829 25.5465L17.5621 19.7545C18.2821 19.1548 18.8106 18.3572 19.0824 17.4604ZM24.958 16.4144C25.7521 16.4144 26.3959 17.0582 26.3959 17.8523C26.3959 18.6465 25.7521 19.2903 24.958 19.2903C24.1638 19.2903 23.52 18.6465 23.52 17.8523C23.5207 17.0584 24.1641 16.415 24.958 16.4144ZM23.5688 1.54904C24.7687 1.54912 25.7414 2.52184 25.7413 3.72169C25.7412 4.92154 24.7685 5.89426 23.5686 5.89419C22.3688 5.89411 21.3962 4.92146 21.3962 3.72161C21.3976 2.52222 22.3695 1.55034 23.5688 1.54904ZM3.05325 8.92106C2.2595 8.92014 1.61625 8.27689 1.61533 7.48314C1.61533 6.68901 2.25912 6.04522 3.05325 6.04522C3.84739 6.04522 4.49117 6.68901 4.49117 7.48314C4.49117 8.27727 3.84746 8.92106 3.05325 8.92106ZM6.14236 30.0381C4.81131 30.038 3.73233 28.959 3.73241 27.628C3.73248 26.2969 4.81146 25.2179 6.14252 25.218C7.4735 25.2181 8.55247 26.2971 8.55247 27.628C8.55102 28.9585 7.47281 30.0366 6.14236 30.0381ZM22.7546 26.8269C23.7631 26.828 24.5803 27.6452 24.5814 28.6536C24.5814 29.6626 23.7635 30.4804 22.7546 30.4804C21.7457 30.4804 20.9278 29.6626 20.9278 28.6536C20.9278 27.6447 21.7458 26.8269 22.7546 26.8269ZM14.5023 19.3334C12.7069 19.3314 11.2518 17.8764 11.2498 16.0809C11.2498 14.2846 12.706 12.8283 14.5023 12.8283C16.2987 12.8283 17.7549 14.2846 17.7549 16.0809C17.7549 17.8772 16.2987 19.3334 14.5023 19.3334Z" fill="#926B4F"/>
</svg>
