<svg width="17" height="17" viewBox="0 0 17 17" fill="none" xmlns="http://www.w3.org/2000/svg">
<path d="M4.17342 5.03441H1.30753C0.986254 5.03441 0.724945 5.29576 0.724945 5.61703V16.4175C0.724945 16.7386 0.986287 17 1.30756 17H4.17339C4.49453 17 4.75587 16.7386 4.75587 16.4175V5.61703C4.75587 5.29576 4.4946 5.03441 4.17342 5.03441ZM3.75838 16.0024H1.72243V6.03193H3.75832L3.75838 16.0024ZM2.74047 0C1.61987 0 0.708344 0.911524 0.708344 2.03203C0.708344 3.15263 1.61987 4.06412 2.74047 4.06412C3.86081 4.06412 4.77251 3.1526 4.77251 2.03199C4.77247 0.911524 3.86095 0 2.74047 0ZM2.74047 3.06663C2.16995 3.06663 1.70586 2.60256 1.70586 2.03203C1.70586 1.4616 2.16995 0.99752 2.74047 0.99752C3.3109 0.99752 3.77495 1.4616 3.77495 2.03199C3.77495 2.60242 3.3109 3.06663 2.74047 3.06663ZM14.0244 6.30068C13.3393 5.72882 12.4684 5.42299 11.5729 5.43959C11.0202 5.44997 10.4766 5.58216 9.98081 5.82674V5.59096C9.98081 5.2837 9.73169 5.03455 9.42443 5.03455H6.50644C6.19918 5.03455 5.95002 5.2837 5.95002 5.59096V16.4436C5.95002 16.7509 6.19918 17 6.50644 17H9.482C9.75749 17 9.98085 16.7766 9.98085 16.5013V10.0307C9.98085 9.47675 10.4143 9.00802 10.9678 8.99156C11.5432 8.97456 12.0166 9.43747 12.0166 10.009V16.5117C12.0166 16.7813 12.2353 17 12.5049 17H15.3647C15.6343 17 15.853 16.7813 15.853 16.5117V10.2068C15.853 8.69452 15.1865 7.27067 14.0244 6.30068ZM14.8555 16.0024H13.0143V10.009C13.0143 8.89776 12.1101 7.99364 10.9987 7.99364C9.88745 7.99364 8.98329 8.89776 8.98329 10.0091V16.0024H6.94754V6.03193H8.98333V6.75682H8.98399C8.98361 6.8786 9.028 6.99626 9.10873 7.08743C9.29122 7.29365 9.60652 7.31287 9.81274 7.13026C10.3044 6.69517 10.9349 6.44936 11.5913 6.43685C12.2475 6.42439 12.8843 6.64825 13.3852 7.06641C14.3197 7.84642 14.8555 8.99102 14.8555 10.2068V16.0024Z" fill="#926B4F"/>
</svg>
