<svg width="76" height="106" viewBox="0 0 76 106" fill="none" xmlns="http://www.w3.org/2000/svg">
<path d="M62.2116 41.7045V27.395L51.2078 19.6601H51.4027V9.42174L38.0008 0L24.599 9.42174V19.6601H24.7939L13.7901 27.395V41.7045L0 51.3979V105.995L20.2852 105.998V103.822V101.645V77.5856L26.9231 82.252V105.998H34.4668V39.8852L26.9231 45.1905V76.9148L20.6918 72.5335L20.2852 72.2484V49.8552L12.7414 55.1605V72.287L16.2654 74.7636L12.7414 76.5376V101.647H4.40455V53.643L18.1577 43.9748H18.1946V43.948L37.9992 30.0258L57.8037 43.948V43.9748H57.8407L71.5938 53.643V101.645H63.2569V76.5376L59.7329 74.7636L63.2569 72.287V55.1605L55.7132 49.8552V72.2484L55.3065 72.5335L49.0752 76.9148V45.1905L41.5315 39.8852V106H49.0752V82.2537L55.7132 77.5872V101.647V105.998L76 105.995V51.3979L62.2099 41.7028L62.2116 41.7045ZM29.0052 11.6652L38.0008 5.34217L46.9965 11.6652V16.7006L38.0008 10.3758L29.0052 16.7006V11.6652ZM38.0008 24.6853L18.1963 38.6075V29.6385L38.0008 15.7163L57.8054 29.6385V38.6075L38.0008 24.6853Z" fill="#926B4F"/>
</svg>
