<svg width="57" height="73" viewBox="0 0 57 73" fill="none" xmlns="http://www.w3.org/2000/svg">
<path d="M1.6646 67.3557H1.99218C2.26635 67.3557 2.46396 67.2716 2.58592 67.1016L4.6226 64.3924C4.71874 64.2632 4.82467 64.1747 4.93861 64.1251C5.05344 64.0756 5.19408 64.0508 5.36054 64.0508H6.80349L4.23983 67.3344C4.07337 67.5477 3.90157 67.7008 3.72354 67.7929C3.85261 67.8442 3.96922 67.9115 4.07337 67.9938C4.17663 68.077 4.27722 68.1859 4.37336 68.3222L7.00467 72.0581H5.52255C5.42642 72.0581 5.34363 72.051 5.27509 72.036C5.20655 72.0209 5.14691 72.0006 5.09528 71.9749C5.04365 71.9492 4.99914 71.9165 4.96175 71.8784C4.92437 71.8404 4.88965 71.7952 4.85582 71.743L2.7862 68.863C2.71588 68.7629 2.6322 68.693 2.53607 68.6505C2.43993 68.6081 2.30462 68.5868 2.13104 68.5868H1.6646V72.0581H0V64.0508H1.6646V67.3566V67.3557Z" fill="#D6A279"/>
<path d="M14.5856 72.0572H13.2922C13.148 72.0572 13.0305 72.0236 12.9397 71.9554C12.8489 71.8873 12.7821 71.7996 12.7376 71.6934L12.1937 70.1649H8.98561L8.44172 71.6934C8.40523 71.7855 8.34024 71.8687 8.24767 71.9448C8.15509 72.02 8.03848 72.0581 7.89783 72.0581H6.59375L9.74047 64.0508H11.4442L14.5856 72.0581V72.0572ZM9.39063 69.017H11.7887L10.9173 66.5662C10.8656 66.4378 10.8104 66.2865 10.7535 66.1139C10.6965 65.9413 10.6404 65.7554 10.5843 65.5563C10.5327 65.759 10.4793 65.9475 10.4232 66.1219C10.3671 66.2962 10.3137 66.4485 10.2621 66.5768L9.39063 69.0161V69.017Z" fill="#D6A279"/>
<path d="M16.209 64.0587C16.2588 64.064 16.3042 64.0772 16.3452 64.0967C16.3861 64.1171 16.4244 64.1436 16.4618 64.1764C16.4983 64.2091 16.5392 64.2534 16.5837 64.3091L20.6242 69.4134C20.609 69.2735 20.5983 69.1372 20.5912 69.0054C20.5841 68.8726 20.5805 68.7478 20.5805 68.6301V64.0498H22.0511V72.0571H21.1912C21.0621 72.0571 20.9526 72.0359 20.8636 71.9934C20.7746 71.9509 20.6882 71.8783 20.6028 71.7757L16.59 66.7042C16.6015 66.8325 16.6095 66.9591 16.6149 67.0821C16.6202 67.2051 16.6229 67.3202 16.6229 67.4273V72.0571H15.1523V64.0498H16.0292C16.0995 64.0498 16.1591 64.0525 16.209 64.0587Z" fill="#D6A279"/>
<path d="M28.9302 71.9382C28.4655 72.0763 27.975 72.1454 27.457 72.1454C26.7947 72.1454 26.1956 72.0436 25.6588 71.8391C25.1221 71.6347 24.6636 71.3505 24.2827 70.9868C23.9017 70.623 23.607 70.1902 23.4005 69.6901C23.1931 69.1901 23.0898 68.6431 23.0898 68.051C23.0898 67.4589 23.1887 66.9013 23.3872 66.4012C23.5848 65.9011 23.867 65.471 24.2337 65.1099C24.5996 64.7496 25.0437 64.4682 25.5627 64.2655C26.0826 64.0637 26.6647 63.9619 27.3083 63.9619C27.6412 63.9619 27.9519 63.9885 28.2412 64.0416C28.5296 64.0947 28.7958 64.1681 29.0406 64.262C29.2845 64.3558 29.5079 64.4673 29.7117 64.5956C29.9147 64.7249 30.0999 64.8665 30.2663 65.0205L29.7838 65.7604C29.71 65.8781 29.6138 65.9498 29.4954 65.9755C29.377 66.0011 29.248 65.9719 29.1073 65.887C28.9738 65.8064 28.8438 65.7338 28.7157 65.6692C28.5875 65.6046 28.4522 65.5489 28.308 65.5011C28.1638 65.4533 28.0062 65.4161 27.8362 65.3904C27.6662 65.3648 27.4703 65.3524 27.2478 65.3524C26.8739 65.3524 26.5357 65.417 26.2321 65.5453C25.9286 65.6737 25.6704 65.856 25.4577 66.0914C25.2449 66.3268 25.0811 66.6101 24.9663 66.9411C24.8515 67.2721 24.7945 67.6421 24.7945 68.0501C24.7945 68.4917 24.8568 68.8865 24.9832 69.2343C25.1087 69.5822 25.2868 69.8751 25.5164 70.1141C25.7461 70.354 26.0202 70.5354 26.3407 70.6602C26.6612 70.785 27.0163 70.8478 27.4089 70.8478C27.6751 70.8478 27.9127 70.8213 28.1219 70.7682C28.3311 70.7151 28.5358 70.6425 28.7352 70.5504V69.2034H27.8246C27.7178 69.2034 27.6332 69.175 27.5718 69.1175C27.5113 69.0609 27.4801 68.9874 27.4801 68.8998V67.9784H30.2441V71.2842C29.8337 71.5824 29.3957 71.8002 28.9311 71.9382H28.9302Z" fill="#D6A279"/>
<path d="M32.4805 64.0587C32.5303 64.064 32.5757 64.0772 32.6166 64.0967C32.6576 64.1171 32.6959 64.1436 32.7333 64.1764C32.7698 64.2091 32.8107 64.2534 32.8552 64.3091L36.8956 69.4134C36.8805 69.2735 36.8698 69.1372 36.8627 69.0054C36.8556 68.8726 36.852 68.7478 36.852 68.6301V64.0498H38.3226V72.0571H37.4627C37.3336 72.0571 37.2241 72.0359 37.1351 71.9934C37.0461 71.9509 36.9597 71.8783 36.8743 71.7757L32.8614 66.7042C32.873 66.8325 32.881 66.9591 32.8864 67.0821C32.8917 67.2051 32.8944 67.3202 32.8944 67.4273V72.0571H31.4238V64.0498H32.3006C32.371 64.0498 32.4306 64.0525 32.4805 64.0587Z" fill="#D6A279"/>
<path d="M46.8805 72.0572H45.5871C45.4429 72.0572 45.3254 72.0236 45.2346 71.9554C45.1438 71.8873 45.0771 71.7996 45.0326 71.6934L44.4887 70.1649H41.2805L40.7366 71.6934C40.7001 71.7855 40.6352 71.8687 40.5426 71.9448C40.45 72.02 40.3334 72.0581 40.1928 72.0581H38.8887L42.0354 64.0508H43.7392L46.8805 72.0581V72.0572ZM41.6856 69.017H44.0836L43.2122 66.5662C43.1606 66.4378 43.1054 66.2865 43.0484 66.1139C42.9914 65.9413 42.9353 65.7554 42.8793 65.5563C42.8276 65.759 42.7742 65.9475 42.7181 66.1219C42.6621 66.2962 42.6087 66.4485 42.557 66.5768L41.6856 69.0161V69.017Z" fill="#D6A279"/>
<path d="M51.7119 68.978C51.7724 69.1143 51.8311 69.2533 51.8863 69.3975C51.9415 69.2506 52.0012 69.1072 52.0644 68.9674C52.1267 68.8275 52.1934 68.693 52.2638 68.5647L54.5007 64.3101C54.5337 64.2473 54.5693 64.1986 54.6058 64.1641C54.6423 64.1287 54.6823 64.103 54.725 64.0871C54.7678 64.0703 54.8158 64.0605 54.8693 64.057C54.9227 64.0534 54.9867 64.0517 55.0606 64.0517H56.3256V72.059H54.855V67.1424C54.855 67.0432 54.8577 66.9344 54.863 66.8167C54.8693 66.6989 54.8773 66.5768 54.8879 66.452L52.5904 70.7951C52.4649 71.0349 52.27 71.1535 52.0074 71.1535H51.7742C51.6451 71.1535 51.5303 71.1234 51.4306 71.0624C51.3309 71.0013 51.2508 70.9119 51.192 70.7942L48.8776 66.4405C48.8892 66.5653 48.8981 66.6883 48.9052 66.8078C48.9123 66.9273 48.9159 67.0388 48.9159 67.1415V72.0581H47.4453V64.0508H48.7102C48.7806 64.0508 48.8438 64.0526 48.8989 64.0561C48.955 64.0596 49.0031 64.0703 49.0458 64.0862C49.0885 64.103 49.1268 64.1287 49.1624 64.1632C49.198 64.1986 49.2319 64.2464 49.2648 64.3092L51.5187 68.5806C51.5854 68.7098 51.6495 68.8417 51.7101 68.978H51.7119Z" fill="#D6A279"/>
<path d="M40.9889 22.0137V14.4604L35.1601 10.3775H35.2634V4.97326L28.1643 0L21.0653 4.97326V10.3775H21.1686L15.3398 14.4604V22.0137L8.03516 27.1303V55.9494L18.7803 55.9511V54.8023V53.6535V40.9535L22.2964 43.4166V55.9511H26.2923V21.0534L22.2964 23.8538V40.5994L18.9957 38.2867L18.7803 38.1363V26.316L14.7844 29.1164V38.1566L16.651 39.4639L14.7844 40.4003V53.6543H10.3683V28.3154L17.6533 23.2121H17.6729V23.1979L28.1635 15.8491L38.654 23.1979V23.2121H38.6736L45.9586 28.3154V53.6535H41.5426V40.4003L39.6759 39.4639L41.5426 38.1566V29.1164L37.5466 26.316V38.1363L37.3312 38.2867L34.0305 40.5994V23.8538L30.0346 21.0534V55.952H34.0305V43.4175L37.5466 40.9544V53.6543V55.9511L48.2926 55.9494V27.1303L40.988 22.0128L40.9889 22.0137ZM23.3993 6.15749L28.1643 2.81986L32.9294 6.15749V8.81538L28.1643 5.47687L23.3993 8.81538V6.15749ZM28.1643 13.0301L17.6738 20.3789V15.6446L28.1643 8.29584L38.6549 15.6446V20.3789L28.1643 13.0301Z" fill="#D6A279"/>
</svg>
