<svg width="37" height="37" viewBox="0 0 37 37" fill="none" xmlns="http://www.w3.org/2000/svg">
<path d="M18.5 22.57C20.2521 22.5701 21.9649 22.0507 23.4218 21.0773C24.8787 20.104 26.0142 18.7204 26.6848 17.1017C27.3553 15.483 27.5308 13.7018 27.189 11.9833C26.8472 10.2649 26.0035 8.68635 24.7646 7.44741C23.5256 6.20848 21.9471 5.36477 20.2287 5.02297C18.5102 4.68118 16.729 4.85666 15.1103 5.52722C13.4915 6.19778 12.108 7.3333 11.1347 8.79018C10.1613 10.2471 9.64185 11.9599 9.64197 13.712C9.64472 16.0604 10.5789 18.3119 12.2395 19.9725C13.9001 21.6331 16.1515 22.5673 18.5 22.57ZM18.5 6.00962C20.0234 6.0095 21.5126 6.46114 22.7794 7.30742C24.0461 8.15369 25.0334 9.3566 25.6165 10.764C26.1995 12.1714 26.3521 13.7201 26.055 15.2143C25.7579 16.7084 25.0243 18.0809 23.9472 19.1582C22.87 20.2354 21.4976 20.969 20.0034 21.2663C18.5093 21.5635 16.9606 21.411 15.5531 20.8281C14.1457 20.2451 12.9427 19.2579 12.0963 17.9912C11.25 16.7246 10.7982 15.2354 10.7982 13.712C10.8005 11.67 11.6127 9.71228 13.0565 8.26832C14.5004 6.82436 16.458 6.01206 18.5 6.00962Z" fill="white"/>
<path d="M16.9992 31.8992C17.1617 32.15 17.3844 32.3562 17.6469 32.499C17.9095 32.6417 18.2036 32.7166 18.5024 32.7166C18.8013 32.7167 19.0954 32.642 19.358 32.4993C19.6207 32.3566 19.8434 32.1505 20.006 31.8998C20.0696 31.8015 26.3746 22.1006 27.3667 20.8738C29.2048 18.5995 30.0983 15.7057 29.8624 12.791C29.6265 9.87632 28.2793 7.16384 26.0995 5.21468C24.9025 4.13545 23.4885 3.32464 21.9525 2.83666C20.4165 2.34868 18.7938 2.1948 17.1934 2.38534C12.2349 2.93745 7.63819 7.6035 7.15603 12.5748C6.858 15.5274 7.72608 18.4796 9.5749 20.8009C10.767 22.3 16.9373 31.8038 16.9992 31.8992ZM8.3065 12.6864C8.73258 8.2984 12.9454 4.02143 17.3212 3.53408C17.7172 3.48987 18.1154 3.46767 18.5139 3.46759C21.0305 3.45984 23.4598 4.38956 25.3282 6.07551C27.2874 7.82685 28.4983 10.2643 28.7104 12.8836C28.9225 15.5028 28.1195 18.1033 26.4677 20.1471C25.4381 21.4189 19.2972 30.8684 19.0359 31.2702C18.9757 31.3557 18.8959 31.4255 18.803 31.4737C18.7102 31.5219 18.6072 31.547 18.5026 31.547C18.398 31.547 18.295 31.5219 18.2022 31.4737C18.1093 31.4255 18.0295 31.3557 17.9693 31.2702C17.7143 30.8771 11.7065 21.623 10.4791 20.0806C8.81795 17.9937 8.03828 15.3402 8.3065 12.6864Z" fill="white"/>
<path d="M19.6065 11.703C19.7281 11.5867 19.8898 11.5218 20.058 11.5218C20.2263 11.5218 20.388 11.5867 20.5096 11.703C20.618 11.8114 20.7651 11.8723 20.9185 11.8722C21.0719 11.8722 21.2189 11.8112 21.3273 11.7027C21.4357 11.5942 21.4966 11.4471 21.4965 11.2938C21.4965 11.1404 21.4355 10.9933 21.327 10.8849C20.9851 10.5586 20.5307 10.3765 20.058 10.3765C19.5854 10.3765 19.1309 10.5586 18.7891 10.8849C18.7353 10.9386 18.6927 11.0024 18.6636 11.0725C18.6346 11.1426 18.6196 11.2178 18.6196 11.2938C18.6195 11.3697 18.6345 11.4449 18.6635 11.5151C18.6925 11.5852 18.7351 11.649 18.7888 11.7027C18.8424 11.7564 18.9062 11.799 18.9763 11.8281C19.0465 11.8572 19.1217 11.8722 19.1976 11.8722C19.2735 11.8722 19.3487 11.8573 19.4189 11.8283C19.4891 11.7992 19.5528 11.7567 19.6065 11.703Z" fill="white"/>
<path d="M14.1727 18.6179C14.2487 18.618 14.3239 18.6031 14.394 18.574C14.4641 18.5449 14.5279 18.5023 14.5815 18.4485L17.9444 15.0856C18.6821 15.6173 19.5929 15.8517 20.4956 15.7422C21.3983 15.6326 22.2267 15.1872 22.8158 14.4945C23.4049 13.8019 23.7116 12.9127 23.6748 12.0042C23.638 11.0956 23.2604 10.2342 22.6172 9.59144C21.974 8.94868 21.1123 8.57171 20.2037 8.53555C19.2951 8.49939 18.4062 8.8067 17.714 9.39631C17.0217 9.98592 16.5769 10.8146 16.468 11.7174C16.3591 12.6201 16.5942 13.5308 17.1264 14.2681L13.764 17.6311C13.6832 17.7119 13.6281 17.8149 13.6058 17.927C13.5835 18.0392 13.595 18.1554 13.6387 18.261C13.6825 18.3666 13.7566 18.4569 13.8516 18.5205C13.9467 18.584 14.0584 18.6179 14.1727 18.6179ZM18.3173 10.4132C18.6617 10.0688 19.1004 9.8343 19.578 9.73928C20.0556 9.64427 20.5507 9.69302 21.0006 9.87938C21.4506 10.0657 21.8351 10.3813 22.1057 10.7862C22.3762 11.1912 22.5206 11.6672 22.5206 12.1542C22.5206 12.6412 22.3762 13.1172 22.1057 13.5222C21.8351 13.9271 21.4506 14.2427 21.0006 14.429C20.5507 14.6154 20.0556 14.6641 19.578 14.5691C19.1004 14.4741 18.6617 14.2396 18.3173 13.8952C18.0877 13.6671 17.9055 13.3959 17.7812 13.0971C17.6568 12.7983 17.5928 12.4778 17.5928 12.1542C17.5928 11.8306 17.6568 11.5101 17.7812 11.2113C17.9055 10.9125 18.0877 10.6413 18.3173 10.4132ZM25.2294 26.9655C25.1553 26.9446 25.0778 26.9387 25.0014 26.9482C24.925 26.9577 24.8512 26.9824 24.7845 27.0207C24.7178 27.0591 24.6594 27.1104 24.6127 27.1717C24.5661 27.2329 24.5321 27.3028 24.5129 27.3774C24.4936 27.4519 24.4895 27.5295 24.5006 27.6057C24.5118 27.6819 24.538 27.7551 24.5778 27.8209C24.6176 27.8868 24.6702 27.9441 24.7325 27.9894C24.7947 28.0347 24.8654 28.0671 24.9403 28.0847C27.7477 28.8091 28.7444 29.8052 28.7444 30.4388C28.7444 31.7304 24.8472 33.5312 18.5 33.5312C12.1528 33.5312 8.25562 31.7298 8.25562 30.4383C8.25562 29.8087 9.25231 28.8143 12.0608 28.0841C12.1343 28.065 12.2033 28.0316 12.2639 27.9858C12.3245 27.94 12.3754 27.8827 12.4139 27.8172C12.4523 27.7517 12.4775 27.6793 12.4879 27.6041C12.4984 27.5289 12.4939 27.4523 12.4748 27.3788C12.4556 27.3053 12.4222 27.2363 12.3764 27.1758C12.3306 27.1152 12.2733 27.0642 12.2079 27.0258C12.1424 26.9873 12.0699 26.9622 11.9947 26.9517C11.9195 26.9413 11.843 26.9458 11.7695 26.9649C8.75801 27.7483 7.09937 28.982 7.09937 30.4383C7.09937 33.1988 12.9731 34.6875 18.5 34.6875C24.0269 34.6875 29.9006 33.1982 29.9006 30.4383C29.9006 28.975 28.2414 27.7413 25.2294 26.9649V26.9655Z" fill="white"/>
</svg>
