<svg width="21" height="20" viewBox="0 0 21 20" fill="none" xmlns="http://www.w3.org/2000/svg">
<mask id="mask0_1195_4994" style="mask-type:alpha" maskUnits="userSpaceOnUse" x="0" y="0" width="21" height="20">
<g clip-path="url(#clip0_1195_4994)">
<path d="M17.7217 1.5625H15.9248V0.625C15.9248 0.279844 15.645 0 15.2998 0C14.9546 0 14.6748 0.279844 14.6748 0.625V1.5625H5.9248V0.625C5.9248 0.279844 5.645 0 5.2998 0C4.9546 0 4.6748 0.279844 4.6748 0.625V1.5625H2.87792C1.45632 1.5625 0.299805 2.71902 0.299805 4.14062V17.4219C0.299805 18.8435 1.45632 20 2.87792 20H17.7217C19.1433 20 20.2998 18.8435 20.2998 17.4219V4.14062C20.2998 2.71902 19.1433 1.5625 17.7217 1.5625ZM2.87792 2.8125H4.6748V3.4375C4.6748 3.78266 4.9546 4.0625 5.2998 4.0625C5.645 4.0625 5.9248 3.78266 5.9248 3.4375V2.8125H14.6748V3.4375C14.6748 3.78266 14.9546 4.0625 15.2998 4.0625C15.645 4.0625 15.9248 3.78266 15.9248 3.4375V2.8125H17.7217C18.454 2.8125 19.0498 3.40828 19.0498 4.14062V5.625H1.5498V4.14062C1.5498 3.40828 2.14558 2.8125 2.87792 2.8125ZM17.7217 18.75H2.87792C2.14558 18.75 1.5498 18.1542 1.5498 17.4219V6.875H19.0498V17.4219C19.0498 18.1542 18.454 18.75 17.7217 18.75Z" fill="#4E4B66"/>
</g>
</mask>
<g mask="url(#mask0_1195_4994)">
<rect x="0.299805" width="20" height="20" fill="#D6A279"/>
</g>
<defs>
<clipPath id="clip0_1195_4994">
<rect width="20" height="20" fill="white" transform="translate(0.299805)"/>
</clipPath>
</defs>
</svg>
