<svg width="70" height="70" viewBox="0 0 70 70" fill="none" xmlns="http://www.w3.org/2000/svg">
<path d="M57.7639 37.0391C57.2013 37.0391 56.7453 37.5045 56.7453 38.0785C56.7453 38.8063 56.165 39.3984 55.4518 39.3984C54.7386 39.3984 54.1583 38.8063 54.1583 38.0785C54.1583 37.5043 53.7022 37.0391 53.1396 37.0391C52.577 37.0391 52.1209 37.5045 52.1209 38.0785C52.1209 39.9527 53.6152 41.4773 55.4518 41.4773C57.2883 41.4773 58.7826 39.9525 58.7826 38.0785C58.7826 37.5042 58.3265 37.0391 57.7639 37.0391Z" fill="#D6A279"/>
<path d="M67.3263 37.2085L64.4591 36.2713C64.0918 36.1511 63.8024 35.852 63.685 35.471C63.0807 33.5106 62.1687 31.6701 60.9745 30.0004C60.4302 29.2394 59.825 28.5127 59.1638 27.8209C59.5868 25.9274 59.8168 23.7845 59.787 21.9331C59.7443 19.2845 59.2256 17.7311 58.2013 17.1837C57.6496 16.8885 55.9707 15.9918 46.8835 20.2364C46.6683 20.3368 46.4673 20.4606 46.2812 20.6023C45.6686 20.4343 45.0424 20.2789 44.4124 20.1394C44.3365 20.1225 44.2583 20.1076 44.1819 20.0912C44.9183 18.4497 45.3482 16.667 45.429 14.8266C45.4542 14.253 45.019 13.7672 44.4568 13.7417C43.8962 13.7132 43.4186 14.1599 43.3936 14.7336C43.2608 17.7596 42.0306 20.6068 39.9298 22.7506C38.6746 24.0314 37.2049 24.9617 35.6385 25.5477C32.922 25.1587 30.1551 25.1587 27.4386 25.5477C25.8721 24.9617 24.4025 24.0314 23.1473 22.7506C20.9059 20.4635 19.6715 17.4227 19.6715 14.1882C19.6715 10.9536 20.9059 7.91294 23.1473 5.62588C25.3887 3.33867 28.3689 2.07906 31.5386 2.07906C34.7082 2.07906 37.6884 3.33867 39.9298 5.62588C40.8305 6.54494 41.5748 7.59375 42.1421 8.74287C42.3951 9.25569 43.0078 9.46216 43.5102 9.2038C44.0128 8.94571 44.215 8.32058 43.9619 7.8079C43.2971 6.4604 42.4252 5.23177 41.3707 4.15562C38.7444 1.47584 35.2527 0 31.5387 0C27.8247 0 24.3329 1.47584 21.7067 4.15562C19.0805 6.83554 17.6341 10.3984 17.6341 14.1881C17.6341 17.9778 19.0805 21.5408 21.7067 24.2205C22.4643 24.9936 23.2884 25.6583 24.1601 26.2152C24.1604 26.2152 24.1607 26.2151 24.1609 26.2151C23.5275 26.383 22.8989 26.5716 22.2772 26.7837C21.7436 26.9658 21.4557 27.5546 21.6341 28.0992C21.8124 28.6437 22.3897 28.9375 22.9232 28.7556C28.4789 26.8604 34.5985 26.8604 40.1542 28.7556C40.2613 28.7922 40.3702 28.8095 40.4772 28.8095C40.9034 28.8095 41.3007 28.5344 41.4433 28.0992C41.6217 27.5548 41.3338 26.9658 40.8002 26.7837C40.1785 26.5716 39.5499 26.3829 38.9164 26.2151C38.9167 26.2151 38.917 26.2152 38.9173 26.2152C39.7891 25.6583 40.6131 24.9936 41.3707 24.2205C42.0409 23.5367 42.6325 22.7899 43.1461 21.9963C43.4269 22.0519 43.7057 22.1102 43.9804 22.1711C44.3462 22.2521 44.7104 22.3392 45.0714 22.4305C45.06 22.4757 45.0484 22.5208 45.039 22.5667C44.5421 24.9725 44.5744 27.1002 45.1348 28.8905C45.6385 30.4997 46.5475 31.8034 47.8364 32.7656C49.3555 33.8995 51.1894 34.3893 52.8507 34.3893C54.101 34.3893 55.2537 34.1117 56.1002 33.6224C57.0578 33.069 57.8601 31.9029 58.4951 30.1521C58.7887 30.5017 59.0669 30.8598 59.3291 31.2264C60.3924 32.7127 61.2041 34.3508 61.7416 36.0949C62.0573 37.1193 62.841 37.9254 63.8378 38.2514L66.7051 39.1886C67.4574 39.4346 67.9629 40.1412 67.9629 40.9472V45.7986C67.9629 46.6046 67.4574 47.3112 66.7051 47.5572L62.0855 49.0671C61.3464 49.3088 60.7209 49.8271 60.3243 50.5266C58.5093 53.7271 55.6559 56.3757 51.8427 58.3986C51.4021 58.6326 51.097 59.051 51.0051 59.5468L49.5255 67.5409C49.4847 67.7612 49.2956 67.9209 49.0759 67.9209H44.2652C44.0454 67.9209 43.8564 67.7611 43.8155 67.5409L42.996 63.1229C42.8347 62.2536 42.0357 61.6762 41.1757 61.8092C39.1035 62.1289 36.9682 62.2909 34.8295 62.2909C33.2384 62.2909 31.6676 62.2003 30.1606 62.0216C29.3273 61.9238 28.551 62.5035 28.3953 63.343L27.6165 67.5409C27.5756 67.7612 27.3865 67.9209 27.1668 67.9209H22.3561C22.1364 67.9209 21.9473 67.7611 21.9059 67.5376L20.4813 59.9872C20.3896 59.5007 20.0901 59.0871 19.6593 58.8523C13.1592 55.3115 9.72344 49.3959 9.72344 41.7453C9.72344 37.8799 10.5522 34.4619 12.1867 31.5858C13.7119 28.9018 15.9396 26.6827 18.8078 24.9898C19.2948 24.7023 19.4612 24.0664 19.1796 23.5693C18.8979 23.0724 18.2748 22.9029 17.7877 23.19C12.2261 26.4729 8.87168 31.5375 7.94814 37.9702V37.97C7.85012 37.961 7.75195 37.9523 7.6542 37.942C7.67197 37.2479 7.54893 36.5476 7.28096 35.8679C6.68992 34.3688 5.47586 33.2868 4.18783 33.1114C3.17283 32.9728 2.20691 33.4125 1.53658 34.3162C0.564648 35.6267 0.723105 36.6638 1.02703 37.303C1.54014 38.3818 2.85906 39.1449 5.04779 39.6247C4.98764 39.7166 4.92146 39.809 4.849 39.9018C3.55578 41.5567 2.03219 41.9227 1.04289 41.9571C0.46375 41.9771 0 42.4515 0 43.0429V43.0479C0 43.6312 0.451035 44.1069 1.02211 44.1336C1.09525 44.137 1.17168 44.1389 1.25125 44.1389C2.50305 44.1389 4.51213 43.6677 6.44232 41.1981C6.74707 40.8083 6.99535 40.397 7.18621 39.9721C7.37844 39.9943 7.56314 40.0132 7.74006 40.03C7.74006 40.0296 7.74006 40.0293 7.7402 40.0289C7.70547 40.5922 7.68619 41.1637 7.68619 41.7453C7.68619 46.074 8.6975 49.9334 10.6918 53.217C12.5307 56.2443 15.1635 58.723 18.5196 60.5871L19.9046 67.9274C20.1273 69.1282 21.1583 69.9999 22.3561 69.9999H27.1668C28.3646 69.9999 29.3956 69.1282 29.6183 67.9274L30.3224 64.1317C31.7848 64.2897 33.2988 64.3698 34.8294 64.3698C36.9294 64.3698 39.0269 64.2205 41.0711 63.9259L41.8134 67.9276C42.0362 69.1285 43.0672 70 44.2649 70H49.0756C50.2734 70 51.3044 69.1284 51.5272 67.9271L52.9678 60.1439C57.0377 57.9479 60.1054 55.0632 62.0875 51.5677C62.2304 51.3158 62.4504 51.1309 62.7069 51.0471L67.3263 49.5372C68.9255 49.0142 70 47.5118 70 45.7983V40.9469C70 39.2335 68.9255 37.7312 67.3263 37.2085ZM57.5966 24.8542C57.2045 28.2757 56.1527 31.2026 55.0959 31.8133C53.8947 32.5076 51.1213 32.6417 49.0391 31.0875C46.9544 29.5314 46.2606 26.7332 47.0323 22.9953C47.0323 22.9951 47.0323 22.9951 47.0323 22.9951C47.1099 22.6197 47.3713 22.2949 47.7315 22.1267C52.8317 19.7445 55.7721 18.9653 56.8645 18.9653C57.0294 18.9653 57.1521 18.9831 57.2339 19.0157C57.562 19.3726 57.9924 21.4011 57.5966 24.8542ZM2.86029 36.3953C2.75488 36.1735 3.00371 35.7835 3.16148 35.5707C3.41154 35.2336 3.64191 35.1647 3.81596 35.1647C3.85273 35.1647 3.88705 35.1678 3.9185 35.1721C4.38689 35.2358 5.04314 35.7618 5.39082 36.6436C5.47271 36.8512 5.57908 37.1951 5.60396 37.6239C4.19371 37.3258 3.09805 36.896 2.86029 36.3953Z" fill="#D6A279"/>
<path d="M32.5279 12.9965V9.27667C33.785 9.36832 34.2521 9.95467 34.683 9.95467C35.2218 9.95467 35.4732 9.25839 35.4732 8.91019C35.4732 8.01218 33.7491 7.62742 32.5279 7.59073V7.09577C32.5279 6.8759 32.2584 6.67432 31.9891 6.67432C31.6837 6.67432 31.4682 6.8759 31.4682 7.09577V7.62715C29.7621 7.81046 28.056 8.72673 28.056 11.0357C28.056 13.3814 29.8519 14.0411 31.4682 14.6274V18.9339C29.6363 18.7872 29.1515 17.5045 28.5588 17.5045C28.1098 17.5045 27.7328 18.1092 27.7328 18.5491C27.7328 19.447 29.2413 20.6748 31.4682 20.7115V21.2795C31.4682 21.4994 31.6838 21.701 31.9891 21.701C32.2586 21.701 32.5279 21.4994 32.5279 21.2795V20.6565C34.4675 20.3815 35.7964 19.1354 35.7964 16.8814C35.7964 14.3893 34.0903 13.5828 32.5279 12.9965ZM31.5759 12.6484C30.6241 12.2819 29.8519 11.8972 29.8519 10.8527C29.8519 9.89971 30.5702 9.44157 31.5759 9.31336V12.6484ZM32.42 18.8972V15.0306C33.2999 15.4154 34.0004 15.9285 34.0004 17.0829C34.0004 18.1277 33.3898 18.714 32.42 18.8972Z" fill="#D6A279"/>
</svg>
