<svg width="92" height="80" viewBox="0 0 92 80" fill="none" xmlns="http://www.w3.org/2000/svg">
<path d="M9.41176 73.5294C3.52941 67.0588 0 60 0 48.2353C0 27.6471 14.7059 9.41177 35.2941 0L40.5882 7.64706C21.1765 18.2353 17.0588 31.7647 15.8823 40.5882C18.8235 38.8235 22.9412 38.2353 27.0588 38.8235C37.6471 40 45.8823 48.2353 45.8823 59.4118C45.8823 64.7059 43.5294 70 40 74.1176C36.4706 78.2353 31.1765 80 25.2941 80C18.8235 80 12.9412 77.0588 9.41176 73.5294Z" fill="white" fill-opacity="0.4"/>
<path d="M55.2946 73.5294C49.4122 67.0588 45.8828 60 45.8828 48.2353C45.8828 27.6471 60.5887 9.41177 81.1769 0L86.471 7.64706C67.0593 18.2353 62.9416 31.7647 61.7652 40.5882C64.7063 38.8235 68.824 38.2353 72.9416 38.8235C83.5299 40 91.7652 48.2353 91.7652 59.4118C91.7652 64.7059 89.4122 70 85.8828 74.1176C82.3534 78.2353 77.0593 80 71.1769 80C64.7063 80 58.824 77.0588 55.2946 73.5294Z" fill="white" fill-opacity="0.4"/>
</svg>
