<svg width="19" height="19" viewBox="0 0 19 19" fill="none" xmlns="http://www.w3.org/2000/svg">
<g clip-path="url(#clip0_1242_1259)">
<path d="M18.2404 11.3525C18.5326 9.96685 18.4924 8.52081 18.1217 7.15359C17.7161 5.65767 16.9192 4.28452 15.8172 3.18252C14.7152 2.08055 13.342 1.28363 11.8461 0.878062C10.4789 0.507339 9.03287 0.46715 7.64717 0.759312C6.74003 0.191724 5.66412 -0.0711217 4.58865 0.0165306C3.41039 0.112607 2.30056 0.626497 1.46352 1.46354C0.626485 2.30058 0.112631 3.41037 0.0165551 4.58863C-0.0711714 5.66413 0.191674 6.73993 0.759336 7.64715C0.467137 9.03277 0.507401 10.4789 0.878086 11.8461C1.28365 13.342 2.08054 14.7152 3.18254 15.8172C4.28454 16.9191 5.6577 17.716 7.15358 18.1216C8.5208 18.4924 9.96688 18.5326 11.3525 18.2404C12.1454 18.7366 13.067 19 14.0047 19C14.1399 19 14.2756 18.9945 14.4111 18.9835C15.5895 18.8874 16.6994 18.3735 17.5364 17.5364C18.3735 16.6993 18.8874 15.5894 18.9835 14.4111C19.0711 13.3356 18.8081 12.2597 18.2404 11.3525ZM16.7105 16.7105C15.3908 18.0302 13.3269 18.2101 11.8032 17.1381C11.7353 17.0904 11.658 17.0576 11.5764 17.0421C11.4948 17.0266 11.4109 17.0286 11.3302 17.0481C8.67454 17.6891 5.93747 16.9202 4.00848 14.9912C2.0795 13.0623 1.31063 10.3252 1.9517 7.66952C1.99111 7.50624 1.95827 7.33387 1.86167 7.19645C0.789914 5.67278 0.969821 3.60905 2.28947 2.28944C3.60908 0.969833 5.67277 0.789816 7.19648 1.86165C7.26439 1.90941 7.34172 1.94215 7.42328 1.95768C7.50485 1.9732 7.5888 1.97115 7.66951 1.95167C10.3252 1.31065 13.0622 2.07951 14.9912 4.00853C16.9202 5.93748 17.6891 8.67456 17.0481 11.3301C17.0286 11.4109 17.0265 11.4948 17.0421 11.5764C17.0576 11.658 17.0903 11.7353 17.1381 11.8032C18.2101 13.327 18.0303 15.3908 16.7105 16.7105Z" fill="#926B4F"/>
<path d="M9.60933 8.86127C8.40316 8.45329 7.03613 7.99079 7.03613 7.30698C7.03613 6.43468 8.16444 5.69777 9.50008 5.69777C10.8357 5.69777 11.964 6.43472 11.964 7.30698C11.964 7.62949 12.2255 7.891 12.5481 7.891C12.8706 7.891 13.1321 7.62953 13.1321 7.30698C13.1321 6.52816 12.7288 5.80909 11.9964 5.2821C11.3222 4.79694 10.4356 4.52979 9.50008 4.52979C8.56451 4.52979 7.67797 4.79697 7.00373 5.2821C6.27138 5.80906 5.86807 6.52816 5.86807 7.30698C5.86807 8.01714 6.27587 8.61638 7.08006 9.08808C7.68703 9.44407 8.47397 9.71025 9.23501 9.96768C10.5767 10.4215 11.964 10.8909 11.964 11.6934C11.964 12.5657 10.8357 13.3026 9.50008 13.3026C8.16448 13.3026 7.03613 12.5656 7.03613 11.6934C7.03613 11.3709 6.77465 11.1094 6.4521 11.1094C6.12955 11.1094 5.86807 11.3708 5.86807 11.6934C5.86807 12.4722 6.27134 13.1913 7.00373 13.7183C7.67797 14.2034 8.56451 14.4706 9.50008 14.4706C10.4357 14.4706 11.3222 14.2034 11.9964 13.7183C12.7288 13.1913 13.1321 12.4722 13.1321 11.6934C13.1321 10.053 11.2605 9.41987 9.60933 8.86127Z" fill="#926B4F"/>
</g>
<defs>
<clipPath id="clip0_1242_1259">
<rect width="19" height="19" fill="white"/>
</clipPath>
</defs>
</svg>
