<svg width="21" height="21" viewBox="0 0 21 21" fill="none" xmlns="http://www.w3.org/2000/svg">
<g clip-path="url(#clip0_1242_1240)">
<path d="M10.5004 0C4.66674 0 1.15011 3.59625 0.254989 7.16012C-0.674261 10.8561 0.948864 14.3973 4.50311 16.513C3.71299 19.3795 3.23436 20.342 3.98949 20.8574C4.83649 21.4366 6.05624 20.2388 8.09411 18.6751L8.93149 18.0338C12.2119 18.459 15.5535 17.5149 17.9195 15.4849C19.9057 13.7804 20.9995 11.501 20.9995 9.06763C21.0004 4.067 16.2902 0 10.5004 0ZM17.0664 14.4883C14.9191 16.331 11.847 17.1561 8.85186 16.6968C8.43274 16.6294 6.58386 18.2481 5.07886 19.2964C5.24861 18.6532 5.58111 17.5709 5.90399 16.3625C5.94238 16.2197 5.93128 16.0681 5.87249 15.9324C5.8137 15.7967 5.71069 15.6849 5.58024 15.6153C1.61911 13.4881 0.888489 10.0188 1.52636 7.48037C2.29986 4.41087 5.37374 1.3125 10.5004 1.3125C15.5666 1.3125 19.6879 4.7915 19.6879 9.06675C19.6879 11.1125 18.7569 13.0375 17.0664 14.4883Z" fill="#926B4F"/>
<path d="M5.68777 6.78141H3.06277C2.19477 6.78141 2.19389 8.09391 3.06277 8.09391H3.71902V11.8127C3.71902 12.6807 5.03152 12.6815 5.03152 11.8127V8.09391H5.68777C6.55577 8.09391 6.55664 6.78141 5.68777 6.78141ZM8.92177 7.19441L8.91739 7.18828C8.70214 6.66766 7.93214 6.64316 7.70727 7.18828L7.70377 7.19441L5.95377 11.5694C5.92175 11.6494 5.90582 11.735 5.90687 11.8212C5.90793 11.9074 5.92595 11.9925 5.95991 12.0717C5.99388 12.151 6.04312 12.2227 6.10482 12.2829C6.16652 12.3431 6.23948 12.3905 6.31952 12.4225C7.15777 12.7603 7.30739 11.5729 7.53227 11.1573H9.09414L9.45377 12.0568C9.77489 12.8618 10.9973 12.3779 10.6726 11.5694L8.92177 7.19441ZM8.05727 9.84391L8.31277 9.20428L8.56827 9.84391H8.05727ZM13.5628 11.1564H12.469V7.43766C12.469 6.56966 11.1565 6.56878 11.1565 7.43766V11.8127C11.1565 12.1749 11.4505 12.4689 11.8128 12.4689H13.5628C14.4308 12.4689 14.4316 11.1564 13.5628 11.1564ZM15.969 8.47803V7.43766C15.969 6.56966 14.6565 6.56878 14.6565 7.43766V11.8127C14.6565 12.6807 15.969 12.6815 15.969 11.8127V10.5273C17.3734 12.055 17.4189 12.4689 17.9378 12.4689C18.489 12.4689 18.8049 11.8153 18.4356 11.3848L16.8108 9.49216L18.4059 7.89703L18.412 7.89003L18.4146 7.88741C19.0105 7.26966 18.0883 6.35878 17.4784 6.96866L15.969 8.47803Z" fill="#926B4F"/>
</g>
<defs>
<clipPath id="clip0_1242_1240">
<rect width="21" height="21" fill="white"/>
</clipPath>
</defs>
</svg>
