<svg width="23" height="23" viewBox="0 0 23 23" fill="none" xmlns="http://www.w3.org/2000/svg">
<g clip-path="url(#clip0_1242_1254)">
<path d="M22.5496 1.88453C22.3676 1.71797 22.1445 1.60286 21.9033 1.55103C21.6621 1.4992 21.4114 1.51252 21.177 1.58962L0.953747 8.25607C0.4026 8.43774 0.0288501 8.92972 0.00158248 9.50935C-0.0256402 10.089 0.300268 10.6139 0.831873 10.8466L5.83325 13.0348L7.34222 20.0334C7.40489 20.3242 7.55246 20.5831 7.86507 20.6628C8.18127 20.7433 8.40467 20.5705 8.6406 20.3939L12.352 17.6148L16.691 21.1654C16.9437 21.3723 17.2526 21.4802 17.5676 21.4802C17.7202 21.48 17.8717 21.4549 18.0162 21.4057C18.4728 21.2509 18.8114 20.8782 18.9217 20.4088L22.9632 3.22608C23.0195 2.98589 23.0109 2.73502 22.9382 2.49925C22.8656 2.26349 22.7314 2.05132 22.5496 1.88453ZM8.9639 14.2887C8.96143 14.2946 8.959 14.3012 8.95671 14.3091L8.12009 17.232L7.18643 12.9018L13.6065 9.33478L9.11789 14.0281C9.0475 14.1022 8.99485 14.1913 8.9639 14.2887ZM9.22943 18.2654L9.60943 16.9378L9.97289 15.6679L11.2752 16.7336L9.22943 18.2654ZM21.6482 2.91675L17.6068 20.0995C17.6048 20.108 17.6021 20.1198 17.5823 20.1265C17.5628 20.1331 17.5532 20.1255 17.5465 20.1199L12.7987 16.2347L12.7983 16.2344L10.5985 14.4343L17.6658 7.04476C17.7775 6.92796 17.8436 6.77499 17.8521 6.61361C17.8606 6.45224 17.811 6.29315 17.7123 6.16523C17.6135 6.0373 17.4722 5.94901 17.3139 5.91641C17.1556 5.88381 16.9908 5.90906 16.8496 5.98756L6.38498 11.8018L1.37336 9.60898C1.35809 9.60234 1.34969 9.59861 1.3509 9.57278C1.35211 9.54704 1.36083 9.54412 1.37664 9.53891L21.5999 2.8725C21.6097 2.86931 21.6208 2.86563 21.637 2.88045C21.6533 2.89537 21.6506 2.90669 21.6482 2.91675Z" fill="#926B4F"/>
</g>
<defs>
<clipPath id="clip0_1242_1254">
<rect width="23" height="23" fill="white"/>
</clipPath>
</defs>
</svg>
