<svg width="38" height="37" viewBox="0 0 38 37" fill="none" xmlns="http://www.w3.org/2000/svg">
<g clip-path="url(#clip0_1116_1302)">
<path d="M28.995 16.3425V6.79067H30.2036C30.4453 6.79168 30.6821 6.72228 30.8849 6.59094C31.0877 6.4596 31.2478 6.27203 31.3457 6.05116C31.4494 5.82949 31.4865 5.58246 31.4523 5.34013C31.4182 5.0978 31.3143 4.87061 31.1533 4.68619L27.472 0.449439C27.3526 0.318566 27.2072 0.213969 27.0452 0.142308C26.8831 0.0706463 26.7079 0.0334901 26.5307 0.0332048C26.3535 0.0329195 26.1782 0.0695113 26.0159 0.140651C25.8536 0.21179 25.7079 0.315918 25.5881 0.446405L21.9037 4.68619C21.7428 4.87064 21.6389 5.09783 21.6048 5.34015C21.5706 5.58246 21.6076 5.82947 21.7113 6.05116C21.8091 6.27208 21.9692 6.4597 22.172 6.59104C22.3749 6.72239 22.6117 6.79177 22.8534 6.79067H24.062V16.3426C18.9019 17.591 15.4904 22.4976 16.1194 27.766C16.7484 33.0345 21.2194 37.001 26.5285 37.001C31.8376 37.001 36.3085 33.0344 36.9376 27.766C37.5666 22.4976 34.1551 17.591 28.995 16.3425ZM24.6786 5.55814H22.844L22.8379 5.49654L26.5377 1.2561L30.2191 5.49654L30.2037 5.55814H28.3784C28.2149 5.55814 28.058 5.62306 27.9424 5.73863C27.8268 5.85419 27.7618 6.01093 27.7618 6.17437V16.1133C26.943 16.0082 26.1141 16.0082 25.2953 16.1133V6.17437C25.2952 6.01093 25.2302 5.8542 25.1146 5.73864C24.9989 5.62309 24.8421 5.55816 24.6786 5.55814ZM26.5285 35.7545C21.4201 35.7545 17.2789 31.6159 17.2789 26.5107C17.2789 21.4056 21.4201 17.267 26.5285 17.267C31.6369 17.267 35.7781 21.4056 35.7781 26.5107C35.7723 31.6135 31.6345 35.7487 26.5285 35.7545Z" fill="#926B4F"/>
<path d="M8.02883 20.6584V30.2072H6.82016C6.57846 30.2061 6.34169 30.2755 6.13884 30.4068C5.936 30.5382 5.77589 30.7258 5.67812 30.9467C5.57445 31.1684 5.53745 31.4154 5.5716 31.6577C5.60574 31.9 5.70958 32.1272 5.87048 32.3117L9.55183 36.5484C9.66737 36.6855 9.81145 36.7958 9.97401 36.8715C10.1366 36.9473 10.3137 36.9867 10.4931 36.9869C10.6724 36.9872 10.8497 36.9484 11.0125 36.8732C11.1753 36.798 11.3197 36.6882 11.4357 36.5515L15.1177 32.3117C15.2794 32.1273 15.3839 31.8999 15.4185 31.6572C15.4532 31.4145 15.4163 31.167 15.3126 30.9448C15.2146 30.7243 15.0544 30.537 14.8515 30.406C14.6487 30.275 14.4121 30.2059 14.1706 30.2072H12.962V20.6584C18.122 19.41 21.5335 14.5034 20.9045 9.23496C20.2754 3.96666 15.8045 0 10.4954 0C5.18623 0 0.715333 3.96666 0.0862861 9.23503C-0.542761 14.5034 2.86876 19.41 8.02883 20.6584ZM12.3453 31.4397H14.1798L14.186 31.5013L10.4861 35.7418L6.80477 31.5013L6.82016 31.4397H8.64544C8.80898 31.4397 8.96582 31.3748 9.08146 31.2592C9.1971 31.1437 9.26206 30.9869 9.26206 30.8235V20.8846C9.67127 20.9349 10.0831 20.9612 10.4954 20.9634C10.9077 20.9612 11.3195 20.9348 11.7287 20.8846V30.8235C11.7287 30.9869 11.7936 31.1437 11.9093 31.2592C12.0249 31.3748 12.1818 31.4397 12.3453 31.4397ZM10.4954 1.24343C15.6038 1.24343 19.745 5.38204 19.745 10.4872C19.745 15.5924 15.6038 19.731 10.4954 19.731C5.38697 19.731 1.24574 15.5924 1.24574 10.4872C1.25152 5.38443 5.38936 1.24921 10.4954 1.24343Z" fill="#926B4F"/>
<path d="M8.02896 12.9518C8.02896 12.7884 7.964 12.6316 7.84836 12.5161C7.73272 12.4005 7.57588 12.3356 7.41234 12.3356C7.24881 12.3356 7.09197 12.4005 6.97633 12.5161C6.86069 12.6316 6.79573 12.7884 6.79573 12.9518C6.79573 14.4751 8.13201 15.741 9.87896 15.9869V17.2656C9.87896 17.429 9.94392 17.5858 10.0596 17.7013C10.1752 17.8169 10.332 17.8818 10.4956 17.8818C10.6591 17.8818 10.816 17.8169 10.9316 17.7013C11.0472 17.5858 11.1122 17.429 11.1122 17.2656V15.9869C12.8591 15.7404 14.1954 14.4752 14.1954 12.9518C14.1954 11.4284 12.8591 10.1626 11.1122 9.91673V6.23901C12.1728 6.44548 12.9621 7.16339 12.9621 8.02183C12.9621 8.18527 13.0271 8.34201 13.1427 8.45757C13.2584 8.57314 13.4152 8.63806 13.5787 8.63806C13.7423 8.63806 13.8991 8.57314 14.0148 8.45757C14.1304 8.34201 14.1954 8.18527 14.1954 8.02183C14.1954 6.49849 12.8591 5.23267 11.1121 4.98677V3.70802C11.1121 3.54459 11.0472 3.38785 10.9315 3.27229C10.8159 3.15672 10.659 3.0918 10.4955 3.0918C10.332 3.0918 10.1751 3.15672 10.0595 3.27229C9.94385 3.38785 9.87889 3.54459 9.87889 3.70802V4.98677C8.13194 5.23325 6.79565 6.49842 6.79565 8.02183C6.79565 9.54525 8.13194 10.811 9.87889 11.0569V14.7347C8.81821 14.5281 8.02896 13.8109 8.02896 12.9518ZM12.962 12.9518C12.962 13.8108 12.1727 14.5281 11.1121 14.7346V11.169C12.1728 11.3754 12.962 12.0928 12.962 12.9518ZM8.02896 8.02176C8.02896 7.16274 8.81829 6.44541 9.87889 6.23894V9.80458C8.81821 9.59818 8.02896 8.88085 8.02896 8.02176ZM26.5282 22.1956C27.0982 22.2059 27.657 22.3557 28.1557 22.6318C28.6544 22.9079 29.0778 23.3019 29.3888 23.7794C29.4336 23.8489 29.492 23.9087 29.5605 23.9552C29.6289 24.0017 29.706 24.034 29.7872 24.0501C29.8684 24.0662 29.952 24.0658 30.0331 24.0489C30.1141 24.032 30.1909 23.999 30.2589 23.9518C30.3269 23.9046 30.3847 23.8443 30.4288 23.7743C30.473 23.7043 30.5026 23.6262 30.5159 23.5445C30.5292 23.4629 30.5259 23.3794 30.5062 23.299C30.4865 23.2187 30.4509 23.1431 30.4013 23.0768C29.9782 22.4346 29.4037 21.906 28.7284 21.5375C28.0531 21.169 27.2976 20.9717 26.5282 20.9631C24.3375 21.0483 22.4561 22.5458 21.883 24.6606H20.3617C20.0212 24.6606 19.7451 24.9365 19.7451 25.2769C19.7451 25.6172 20.0212 25.8931 20.3617 25.8931H21.6271C21.6073 26.0958 21.595 26.301 21.595 26.5093C21.595 26.7176 21.6073 26.9228 21.6271 27.1255H20.3617C20.0212 27.1255 19.7451 27.4014 19.7451 27.7418C19.7451 28.0821 20.0212 28.358 20.3617 28.358H21.883C22.4561 30.4728 24.3375 31.9703 26.5282 32.0555C27.2976 32.0469 28.0531 31.8496 28.7284 31.4811C29.4037 31.1125 29.9782 30.584 30.4013 29.9418C30.4501 29.8755 30.4851 29.8 30.5042 29.72C30.5233 29.6399 30.5262 29.5568 30.5127 29.4757C30.4991 29.3945 30.4695 29.3168 30.4254 29.2473C30.3813 29.1777 30.3238 29.1177 30.2561 29.0708C30.1885 29.0239 30.1121 28.9909 30.0315 28.974C29.9509 28.957 29.8677 28.9564 29.7869 28.9721C29.706 28.9878 29.6292 29.0195 29.5608 29.0654C29.4924 29.1113 29.4339 29.1704 29.3888 29.2393C29.0778 29.7167 28.6544 30.1107 28.1557 30.3868C27.657 30.6629 27.0982 30.8127 26.5282 30.823C25.7893 30.7917 25.0766 30.5402 24.4818 30.101C23.887 29.6617 23.4373 29.0548 23.1903 28.3581H26.5282C26.8688 28.3581 27.1448 28.0822 27.1448 27.7418C27.1448 27.4015 26.8688 27.1256 26.5282 27.1256H22.8703C22.8143 26.7167 22.8143 26.302 22.8703 25.8931H26.5282C26.8688 25.8931 27.1448 25.6172 27.1448 25.2769C27.1448 24.9365 26.8688 24.6606 26.5282 24.6606H23.1903C23.6955 23.2353 25.0165 22.2597 26.5282 22.1956Z" fill="#926B4F"/>
</g>
<defs>
<clipPath id="clip0_1116_1302">
<rect width="38" height="37" fill="white"/>
</clipPath>
</defs>
</svg>
