<svg width="70" height="70" viewBox="0 0 70 70" fill="none" xmlns="http://www.w3.org/2000/svg">
<g clip-path="url(#clip0_665_6383)">
<path d="M41.0982 36.3676C40.9187 36.3676 40.7409 36.3323 40.575 36.2635C40.4091 36.1948 40.2583 36.094 40.1314 35.967L28.9888 24.8245C28.7378 24.567 28.5983 24.2209 28.6006 23.8614C28.6029 23.5018 28.7468 23.1576 29.0011 22.9033C29.2554 22.649 29.5996 22.5052 29.9592 22.503C30.3188 22.5007 30.6648 22.6402 30.9223 22.8913L41.5068 33.4755L48.1092 31.7063C48.4594 31.6125 48.8326 31.6616 49.1467 31.843C49.4607 32.0243 49.6899 32.3229 49.7837 32.6732C49.8775 33.0235 49.8284 33.3967 49.6471 33.7107C49.4657 34.0248 49.1671 34.2539 48.8168 34.3477L41.4518 36.3211C41.3365 36.352 41.2176 36.3676 41.0982 36.3676Z" fill="#D6A279"/>
<path d="M41.0977 63.9024C37.2759 63.9094 33.4911 63.1539 29.9649 61.6801C29.7968 61.6126 29.6438 61.5124 29.5147 61.3853C29.3856 61.2581 29.2831 61.1066 29.2131 60.9395C29.1432 60.7724 29.1071 60.5931 29.107 60.4119C29.1069 60.2308 29.1428 60.0514 29.2127 59.8842C29.2825 59.7171 29.3849 59.5655 29.5138 59.4382C29.6428 59.3109 29.7957 59.2106 29.9638 59.143C30.1319 59.0753 30.3117 59.0418 30.4929 59.0443C30.674 59.0467 30.8529 59.0852 31.019 59.1574C36.2034 61.3219 41.9466 61.7609 47.3997 60.4093C52.8528 59.0578 57.7263 55.9875 61.2997 51.6523C64.8731 47.3172 66.9568 41.9473 67.2426 36.3365C67.5285 30.7257 66.0015 25.1718 62.8872 20.4959C59.773 15.82 55.2368 12.2702 49.9493 10.3714C44.6619 8.47256 38.9038 8.32545 33.5262 9.95181C28.1487 11.5782 23.4372 14.8917 20.0883 19.4025C16.7393 23.9133 14.9307 29.3819 14.9297 35C14.9297 35.3626 14.7856 35.7104 14.5292 35.9668C14.2729 36.2232 13.9251 36.3672 13.5625 36.3672C13.1999 36.3672 12.8521 36.2232 12.5958 35.9668C12.3394 35.7104 12.1953 35.3626 12.1953 35C12.1953 29.2837 13.8904 23.6957 17.0662 18.9427C20.2421 14.1898 24.756 10.4853 30.0372 8.29773C35.3184 6.11018 41.1297 5.53782 46.7362 6.65302C52.3427 7.76822 57.4926 10.5209 61.5347 14.563C65.5768 18.605 68.3294 23.7549 69.4446 29.3614C70.5598 34.968 69.9875 40.7792 67.7999 46.0605C65.6124 51.3417 61.9079 55.8556 57.1549 59.0314C52.402 62.2073 46.814 63.9024 41.0977 63.9024Z" fill="#D6A279"/>
<path d="M41.0977 15.5039C40.7351 15.5039 40.3873 15.3599 40.1309 15.1035C39.8745 14.8471 39.7305 14.4993 39.7305 14.1367V11.3865C39.7305 11.0239 39.8745 10.6761 40.1309 10.4197C40.3873 10.1633 40.7351 10.0193 41.0977 10.0193C41.4603 10.0193 41.808 10.1633 42.0644 10.4197C42.3208 10.6761 42.4648 11.0239 42.4648 11.3865V14.1367C42.4648 14.4993 42.3208 14.8471 42.0644 15.1035C41.808 15.3599 41.4603 15.5039 41.0977 15.5039Z" fill="#D6A279"/>
<path d="M30.6671 18.3004C30.4269 18.3006 30.1909 18.2376 29.9828 18.1176C29.7747 17.9975 29.6019 17.8248 29.4818 17.6168L28.1064 15.2343C27.928 14.9205 27.8809 14.5488 27.9755 14.2004C28.0701 13.852 28.2987 13.5551 28.6113 13.3746C28.924 13.1941 29.2953 13.1445 29.6444 13.2368C29.9934 13.3291 30.2918 13.5557 30.4744 13.8672L31.8498 16.2496C31.9697 16.4573 32.0329 16.693 32.0329 16.9329C32.033 17.1727 31.9699 17.4084 31.8501 17.6162C31.7303 17.824 31.5579 17.9966 31.3503 18.1167C31.1426 18.2368 30.907 18.3001 30.6671 18.3004Z" fill="#D6A279"/>
<path d="M23.028 25.9361C22.7879 25.9364 22.5521 25.8731 22.3444 25.7527L19.962 24.377C19.8052 24.2879 19.6676 24.1686 19.5572 24.0261C19.4467 23.8836 19.3655 23.7207 19.3183 23.5467C19.271 23.3727 19.2587 23.1911 19.2819 23.0123C19.3052 22.8335 19.3635 22.661 19.4537 22.5049C19.5438 22.3487 19.664 22.2119 19.8072 22.1024C19.9504 21.9929 20.1139 21.9128 20.2882 21.8667C20.4626 21.8206 20.6443 21.8095 20.8229 21.8339C21.0016 21.8583 21.1736 21.9178 21.3291 22.009L23.7116 23.3844C23.9725 23.5348 24.1765 23.7671 24.2918 24.0452C24.4072 24.3234 24.4274 24.6319 24.3495 24.9227C24.2716 25.2136 24.0998 25.4706 23.8609 25.6539C23.6219 25.8371 23.3291 25.9363 23.028 25.9361Z" fill="#D6A279"/>
<path d="M20.2345 36.3672H17.4834C17.1208 36.3672 16.773 36.2231 16.5167 35.9667C16.2603 35.7104 16.1162 35.3626 16.1162 35C16.1162 34.6374 16.2603 34.2896 16.5167 34.0333C16.773 33.7769 17.1208 33.6328 17.4834 33.6328H20.2345C20.5971 33.6328 20.9448 33.7769 21.2012 34.0333C21.4576 34.2896 21.6016 34.6374 21.6016 35C21.6016 35.3626 21.4576 35.7104 21.2012 35.9667C20.9448 36.2231 20.5971 36.3672 20.2345 36.3672Z" fill="#D6A279"/>
<path d="M41.0977 59.9807C40.7351 59.9807 40.3873 59.8367 40.1309 59.5803C39.8745 59.3239 39.7305 58.9761 39.7305 58.6135V55.8633C39.7305 55.5007 39.8745 55.1529 40.1309 54.8965C40.3873 54.6401 40.7351 54.4961 41.0977 54.4961C41.4603 54.4961 41.808 54.6401 42.0644 54.8965C42.3208 55.1529 42.4648 55.5007 42.4648 55.8633V58.6141C42.4647 58.9766 42.3206 59.3242 42.0642 59.5805C41.8078 59.8367 41.4602 59.9807 41.0977 59.9807Z" fill="#D6A279"/>
<path d="M52.9047 56.8173C52.6645 56.8176 52.4285 56.7545 52.2204 56.6345C52.0123 56.5145 51.8395 56.3418 51.7194 56.1337L50.344 53.7513C50.2528 53.5957 50.1933 53.4237 50.1689 53.245C50.1444 53.0664 50.1556 52.8847 50.2017 52.7104C50.2478 52.536 50.3279 52.3726 50.4374 52.2293C50.5469 52.0861 50.6837 51.966 50.8398 51.8758C50.996 51.7856 51.1684 51.7273 51.3472 51.704C51.526 51.6808 51.7076 51.6931 51.8816 51.7404C52.0557 51.7876 52.2186 51.8688 52.3611 51.9793C52.5036 52.0898 52.6228 52.2273 52.712 52.3841L54.0876 54.7665C54.2076 54.9743 54.2707 55.2099 54.2708 55.4498C54.2708 55.6897 54.2078 55.9254 54.0879 56.1332C53.968 56.341 53.7956 56.5136 53.5879 56.6337C53.3802 56.7538 53.1446 56.8171 52.9047 56.8173Z" fill="#D6A279"/>
<path d="M61.5452 48.1737C61.3056 48.1737 61.0703 48.1105 60.863 47.9903L58.4806 46.6149C58.1665 46.4336 57.9373 46.1349 57.8435 45.7847C57.7496 45.4344 57.7987 45.0612 57.98 44.7472C58.1613 44.4331 58.46 44.2039 58.8102 44.1101C59.1605 44.0162 59.5337 44.0653 59.8477 44.2466L62.2302 45.6223C62.4911 45.7728 62.695 46.0052 62.8102 46.2834C62.9254 46.5617 62.9456 46.8702 62.8675 47.161C62.7894 47.4519 62.6174 47.7088 62.3784 47.892C62.1393 48.0751 61.8464 48.1741 61.5452 48.1737Z" fill="#D6A279"/>
<path d="M64.7103 36.3672H61.9609C61.5983 36.3672 61.2506 36.2231 60.9942 35.9667C60.7378 35.7104 60.5938 35.3626 60.5938 35C60.5938 34.6374 60.7378 34.2896 60.9942 34.0333C61.2506 33.7769 61.5983 33.6328 61.9609 33.6328H64.7117C65.0743 33.6328 65.4221 33.7769 65.6785 34.0333C65.9349 34.2896 66.0789 34.6374 66.0789 35C66.0789 35.3626 65.9349 35.7104 65.6785 35.9667C65.4221 36.2231 65.0743 36.3672 64.7117 36.3672H64.7103Z" fill="#D6A279"/>
<path d="M59.1658 25.9361C58.8647 25.9363 58.5719 25.8371 58.333 25.6539C58.094 25.4706 57.9222 25.2136 57.8443 24.9227C57.7664 24.6319 57.7867 24.3234 57.902 24.0452C58.0174 23.7671 58.2213 23.5348 58.4822 23.3844L60.8647 22.009C61.0202 21.9178 61.1923 21.8583 61.3709 21.8339C61.5495 21.8095 61.7313 21.8206 61.9056 21.8667C62.0799 21.9128 62.2434 21.9929 62.3866 22.1024C62.5298 22.2119 62.65 22.3487 62.7401 22.5049C62.8303 22.661 62.8887 22.8335 62.9119 23.0123C62.9351 23.1911 62.9228 23.3727 62.8755 23.5467C62.8283 23.7207 62.7471 23.8836 62.6366 24.0261C62.5262 24.1686 62.3886 24.2879 62.2319 24.377L59.8494 25.7527C59.6417 25.8731 59.4059 25.9364 59.1658 25.9361Z" fill="#D6A279"/>
<path d="M51.5268 18.3005C51.2869 18.3003 51.0513 18.2369 50.8437 18.1168C50.6361 17.9967 50.4637 17.8241 50.3438 17.6163C50.224 17.4085 50.1609 17.1729 50.161 16.933C50.1611 16.6931 50.2242 16.4575 50.3442 16.2497L51.7196 13.8673C51.9009 13.5532 52.1995 13.3241 52.5498 13.2302C52.9 13.1363 53.2732 13.1855 53.5873 13.3668C53.9013 13.5481 54.1305 13.8467 54.2244 14.1969C54.3182 14.5472 54.2691 14.9204 54.0878 15.2345L52.7121 17.6169C52.592 17.825 52.4192 17.9977 52.2111 18.1177C52.0031 18.2377 51.767 18.3008 51.5268 18.3005Z" fill="#D6A279"/>
<path d="M22.7287 43.2598H14.0145C13.6519 43.2598 13.3042 43.1157 13.0478 42.8593C12.7914 42.6029 12.6473 42.2552 12.6473 41.8926C12.6473 41.53 12.7914 41.1822 13.0478 40.9258C13.3042 40.6694 13.6519 40.5254 14.0145 40.5254H22.7287C23.0913 40.5254 23.4391 40.6694 23.6955 40.9258C23.9518 41.1822 24.0959 41.53 24.0959 41.8926C24.0959 42.2552 23.9518 42.6029 23.6955 42.8593C23.4391 43.1157 23.0913 43.2598 22.7287 43.2598Z" fill="#D6A279"/>
<path d="M22.7289 52.376H8.44922C8.08662 52.376 7.73887 52.2319 7.48247 51.9755C7.22607 51.7191 7.08203 51.3714 7.08203 51.0088C7.08203 50.6462 7.22607 50.2984 7.48247 50.042C7.73887 49.7856 8.08662 49.6416 8.44922 49.6416H22.7281C23.0907 49.6416 23.4385 49.7856 23.6949 50.042C23.9513 50.2984 24.0953 50.6462 24.0953 51.0088C24.0953 51.3714 23.9513 51.7191 23.6949 51.9755C23.4385 52.2319 23.0907 52.376 22.7281 52.376H22.7289Z" fill="#D6A279"/>
<path d="M22.7289 61.7852H1.36719C1.00459 61.7852 0.656837 61.6411 0.40044 61.3847C0.144043 61.1283 0 60.7806 0 60.418C0 60.0554 0.144043 59.7076 0.40044 59.4512C0.656837 59.1948 1.00459 59.0508 1.36719 59.0508H22.7289C23.0915 59.0508 23.4393 59.1948 23.6957 59.4512C23.9521 59.7076 24.0961 60.0554 24.0961 60.418C24.0961 60.7806 23.9521 61.1283 23.6957 61.3847C23.4393 61.6411 23.0915 61.7852 22.7289 61.7852Z" fill="#D6A279"/>
</g>
<defs>
<clipPath id="clip0_665_6383">
<rect width="70" height="70" fill="white"/>
</clipPath>
</defs>
</svg>
