<svg width="21" height="20" viewBox="0 0 21 20" fill="none" xmlns="http://www.w3.org/2000/svg">
<mask id="mask0_1195_4960" style="mask-type:alpha" maskUnits="userSpaceOnUse" x="0" y="0" width="21" height="20">
<g clip-path="url(#clip0_1195_4960)">
<path d="M20.3788 11.6377C20.3788 11.308 20.1113 11.0406 19.7817 11.0406H18.5867V2.90001C18.5867 1.30094 17.2857 0 15.6867 0C14.0875 0 12.7867 1.30094 12.7867 2.90001V3.98844C12.7867 4.31818 13.054 4.58552 13.3837 4.58552C13.7134 4.58552 13.9808 4.31818 13.9808 3.98844V2.90001C13.9808 1.95938 14.746 1.19414 15.6867 1.19414C16.6273 1.19414 17.3925 1.95938 17.3925 2.90001V11.0406H1.47695C1.14723 11.0406 0.879883 11.308 0.879883 11.6377C0.879883 14.3323 2.58423 16.6362 4.97145 17.5287C4.51224 18.0113 4.22821 18.6733 4.22821 19.4029C4.22821 19.7327 4.49555 20 4.82528 20C5.15501 20 5.42235 19.7327 5.42235 19.4029C5.42235 18.5877 6.04443 17.9243 6.80912 17.9243C6.83721 17.9243 14.4214 17.9243 14.4495 17.9243C15.2142 17.9243 15.8363 18.5877 15.8363 19.4029C15.8363 19.7327 16.1037 20 16.4334 20C16.7631 20 17.0304 19.7327 17.0304 19.4029C17.0304 18.6733 16.7464 18.0114 16.2872 17.5287C18.6744 16.6362 20.3788 14.3323 20.3788 11.6377ZM14.092 16.7302H7.16662C4.56044 16.7302 2.40527 14.7626 2.10883 12.2348H19.1498C18.8533 14.7626 16.6981 16.7302 14.092 16.7302Z" fill="#888888"/>
<path d="M13.3842 5.62146C13.0544 5.62146 12.7871 5.8888 12.7871 6.21853V6.73599C12.7871 7.06572 13.0544 7.33306 13.3842 7.33306C13.7139 7.33306 13.9812 7.06572 13.9812 6.73599V6.21853C13.9812 5.88876 13.7139 5.62146 13.3842 5.62146Z" fill="#888888"/>
<path d="M13.3842 8.48743C13.0544 8.48743 12.7871 8.75477 12.7871 9.0845V9.60196C12.7871 9.93169 13.0544 10.199 13.3842 10.199C13.7139 10.199 13.9812 9.93169 13.9812 9.60196V9.0845C13.9812 8.75474 13.7139 8.48743 13.3842 8.48743Z" fill="#888888"/>
</g>
</mask>
<g mask="url(#mask0_1195_4960)">
<rect x="0.629883" width="20" height="20" fill="#D6A279"/>
</g>
<defs>
<clipPath id="clip0_1195_4960">
<rect width="20" height="20" fill="white" transform="translate(0.629883)"/>
</clipPath>
</defs>
</svg>
