<svg width="26" height="26" viewBox="0 0 26 26" fill="none" xmlns="http://www.w3.org/2000/svg">
<path d="M9.75 1.625C4.37288 1.625 0 5.26988 0 9.75C0 12.1176 1.209 14.3146 3.34262 15.8746L2.52362 17.5126C2.37087 17.8165 2.4245 18.1854 2.6585 18.4324C2.73453 18.5129 2.8262 18.5771 2.92792 18.621C3.02963 18.6649 3.13923 18.6875 3.25 18.6875C3.35725 18.6875 3.46613 18.6664 3.57013 18.6225L6.44312 17.3924C7.79025 17.8003 9.22675 17.9237 10.6681 17.8409C11.1166 17.8181 11.4611 17.4346 11.4368 16.9861C11.4124 16.536 10.9866 16.1687 10.582 16.2191C9.2365 16.2874 7.90075 16.1687 6.65925 15.7544C6.47075 15.6926 6.266 15.7024 6.08238 15.7788L4.96925 16.2565L5.1155 15.9624C5.30237 15.5886 5.174 15.132 4.81812 14.911C2.7885 13.6435 1.625 11.7634 1.625 9.75C1.625 6.16525 5.26988 3.25 9.75 3.25C14.2301 3.25 17.875 6.16525 17.875 9.75C17.875 9.99375 17.8636 10.2229 17.823 10.452C17.7434 10.894 18.0391 11.3165 18.4795 11.3945C18.928 11.4774 19.3424 11.18 19.422 10.738C19.4789 10.4146 19.5 10.0913 19.5 9.75C19.5 5.26988 15.1271 1.625 9.75 1.625Z" fill="#926B4F"/>
<path d="M23.2456 21.1104C24.9827 19.8819 26 18.1106 26 16.25C26 12.6652 22.3551 9.75 17.875 9.75C13.3949 9.75 9.74998 12.6652 9.74998 16.25C9.74998 20.2199 14.17 23.4244 19.344 22.6379L23.2424 24.31C23.3447 24.3522 23.4552 24.375 23.5625 24.375C23.7819 24.375 23.998 24.2856 24.154 24.1182C24.3896 23.8713 24.4432 23.504 24.2905 23.1985L23.2456 21.1104ZM21.788 20.1143C21.4142 20.3288 21.2729 20.7968 21.4646 21.1819L21.8432 21.9424L19.7665 21.0503C19.6651 21.0077 19.5563 20.9856 19.4464 20.9852C19.3992 20.9852 19.3537 20.9885 19.3082 20.9966C18.8094 21.0844 18.3397 21.125 17.875 21.125C14.2902 21.125 11.375 18.9377 11.375 16.25C11.375 13.5623 14.2902 11.375 17.875 11.375C21.4597 11.375 24.375 13.5623 24.375 16.25C24.375 17.7645 23.4325 19.1734 21.788 20.1143ZM6.53248 6.5H6.51623C6.06773 6.5 5.71185 6.864 5.71185 7.3125C5.71185 7.761 6.08398 8.125 6.53248 8.125C6.98098 8.125 7.34498 7.761 7.34498 7.3125C7.34498 6.864 6.98098 6.5 6.53248 6.5ZM13.0325 6.5H13.0162C12.5677 6.5 12.2119 6.864 12.2119 7.3125C12.2119 7.761 12.584 8.125 13.0325 8.125C13.481 8.125 13.845 7.761 13.845 7.3125C13.845 6.864 13.481 6.5 13.0325 6.5Z" fill="#926B4F"/>
<path d="M15.47 13.8125H15.4537C15.0036 13.8125 14.6494 14.1765 14.6494 14.625C14.6494 15.0735 15.0215 15.4375 15.47 15.4375C15.9185 15.4375 16.2825 15.0735 16.2825 14.625C16.2825 14.1765 15.9185 13.8125 15.47 13.8125ZM20.345 13.8125H20.3287C19.8802 13.8125 19.5244 14.1765 19.5244 14.625C19.5244 15.0735 19.8981 15.4375 20.345 15.4375C20.7935 15.4375 21.1575 15.0735 21.1575 14.625C21.1575 14.1765 20.7935 13.8125 20.345 13.8125Z" fill="#926B4F"/>
</svg>
