<svg width="29" height="13" viewBox="0 0 29 13" fill="none" xmlns="http://www.w3.org/2000/svg">
<path d="M0.855 12V10.575L6.09 3L6.075 2.97H1.095V1.35H8.475V2.745L3.15 10.335L3.18 10.38H8.505V12H0.855ZM12.4731 12.12C10.4481 12.12 8.93309 10.635 8.93309 8.37C8.93309 6.165 10.4481 4.575 12.4581 4.575C13.3881 4.575 14.1981 4.92 14.7231 5.58L14.7531 5.565V4.68H16.4331V12H14.8281V11.04L14.7981 11.025C14.2731 11.73 13.4931 12.12 12.4731 12.12ZM12.7431 10.59C13.8831 10.59 14.8281 9.705 14.8281 8.385C14.8281 7.08 13.9431 6.09 12.7431 6.09C11.5731 6.09 10.6431 6.975 10.6431 8.385C10.6431 9.675 11.4981 10.59 12.7431 10.59ZM17.908 12V0.959999H19.588V12H17.908ZM24.5449 12.12C22.2349 12.12 20.7049 10.5 20.7049 8.355C20.7049 6.195 22.2349 4.575 24.5449 4.575C26.7949 4.575 28.3849 6.105 28.3849 8.355C28.3849 10.575 26.7949 12.12 24.5449 12.12ZM24.5449 10.59C25.7299 10.59 26.6749 9.675 26.6749 8.355C26.6749 7.005 25.7449 6.09 24.5449 6.09C23.2699 6.09 22.4149 7.08 22.4149 8.355C22.4149 9.6 23.2849 10.59 24.5449 10.59Z" fill="#926B4F"/>
</svg>
